<svg xmlns="http://www.w3.org/2000/svg" xmlns:xlink="http://www.w3.org/1999/xlink" width="1000" zoomAndPan="magnify" viewBox="0 0 750 749.999995" height="1000" preserveAspectRatio="xMidYMid meet" version="1.0"><defs><filter x="0%" y="0%" width="100%" height="100%" id="15a58566ac"><feColorMatrix values="0 0 0 0 1 0 0 0 0 1 0 0 0 0 1 0 0 0 1 0" color-interpolation-filters="sRGB"/></filter><g/><clipPath id="4b229f3ff9"><path d="M 7.109375 231.378906 L 742.890625 231.378906 L 742.890625 329.453125 L 7.109375 329.453125 Z M 7.109375 231.378906 " clip-rule="nonzero"/></clipPath><clipPath id="fdb5d403d9"><path d="M 25.859375 231.378906 L 724.140625 231.378906 C 729.113281 231.378906 733.878906 233.355469 737.398438 236.871094 C 740.914062 240.390625 742.890625 245.15625 742.890625 250.128906 L 742.890625 310.703125 C 742.890625 315.675781 740.914062 320.445312 737.398438 323.960938 C 733.878906 327.476562 729.113281 329.453125 724.140625 329.453125 L 25.859375 329.453125 C 20.886719 329.453125 16.121094 327.476562 12.601562 323.960938 C 9.085938 320.445312 7.109375 315.675781 7.109375 310.703125 L 7.109375 250.128906 C 7.109375 245.15625 9.085938 240.390625 12.601562 236.871094 C 16.121094 233.355469 20.886719 231.378906 25.859375 231.378906 Z M 25.859375 231.378906 " clip-rule="nonzero"/></clipPath><mask id="3854961403"><g filter="url(#15a58566ac)"><rect x="-75" width="900" fill="#000000" y="-74.999999" height="899.999994" fill-opacity="0.6"/></g></mask><clipPath id="fd31d784fb"><path d="M 0.800781 0.078125 L 691.519531 0.078125 L 691.519531 10.398438 L 0.800781 10.398438 Z M 0.800781 0.078125 " clip-rule="nonzero"/></clipPath><clipPath id="e37919f782"><rect x="0" width="692" y="0" height="11"/></clipPath><mask id="deea4c0f31"><g filter="url(#15a58566ac)"><rect x="-75" width="900" fill="#000000" y="-74.999999" height="899.999994" fill-opacity="0.6"/></g></mask><clipPath id="ebea522550"><path d="M 0.679688 0.160156 L 691.398438 0.160156 L 691.398438 10.480469 L 0.679688 10.480469 Z M 0.679688 0.160156 " clip-rule="nonzero"/></clipPath><clipPath id="fb91f758cc"><rect x="0" width="692" y="0" height="11"/></clipPath><mask id="51ef2e1e06"><g filter="url(#15a58566ac)"><rect x="-75" width="900" fill="#000000" y="-74.999999" height="899.999994" fill-opacity="0.8"/></g></mask><clipPath id="648bb610ba"><rect x="0" width="299" y="0" height="39"/></clipPath><mask id="d0115d659c"><g filter="url(#15a58566ac)"><rect x="-75" width="900" fill="#000000" y="-74.999999" height="899.999994" fill-opacity="0.8"/></g></mask><clipPath id="7cd4d25d48"><rect x="0" width="225" y="0" height="39"/></clipPath><mask id="be118a0fc7"><g filter="url(#15a58566ac)"><rect x="-75" width="900" fill="#000000" y="-74.999999" height="899.999994" fill-opacity="0.8"/></g></mask><clipPath id="0d433e92f4"><rect x="0" width="184" y="0" height="39"/></clipPath><mask id="76e84b6124"><g filter="url(#15a58566ac)"><rect x="-75" width="900" fill="#000000" y="-74.999999" height="899.999994" fill-opacity="0.8"/></g></mask><clipPath id="ce8ef39b89"><rect x="0" width="331" y="0" height="39"/></clipPath><mask id="4a1600a725"><g filter="url(#15a58566ac)"><rect x="-75" width="900" fill="#000000" y="-74.999999" height="899.999994" fill-opacity="0.8"/></g></mask><clipPath id="85e7cb67e7"><rect x="0" width="40" y="0" height="39"/></clipPath><mask id="cf5e791f9a"><g filter="url(#15a58566ac)"><rect x="-75" width="900" fill="#000000" y="-74.999999" height="899.999994" fill-opacity="0.8"/></g></mask><clipPath id="0bbdfc6198"><rect x="0" width="66" y="0" height="39"/></clipPath></defs><rect x="-75" width="900" fill="#ffffff" y="-74.999999" height="899.999994" fill-opacity="1"/><rect x="-75" width="900" fill="#fbfdff" y="-74.999999" height="899.999994" fill-opacity="1"/><g clip-path="url(#4b229f3ff9)"><g clip-path="url(#fdb5d403d9)"><path fill="#0e3eb3" d="M 7.109375 231.378906 L 742.890625 231.378906 L 742.890625 329.453125 L 7.109375 329.453125 Z M 7.109375 231.378906 " fill-opacity="1" fill-rule="nonzero"/></g></g><g mask="url(#3854961403)"><g transform="matrix(1, 0, 0, 1, 28, 406)"><g clip-path="url(#e37919f782)"><g clip-path="url(#fd31d784fb)"><path stroke-linecap="butt" transform="matrix(0.749613, 0.000378142, -0.000378337, 0.75, 5.501534, 3.91168)" fill="none" stroke-linejoin="miter" d="M -0.00129075 1.49797 L 908.483273 1.498255 " stroke="#0e3eb3" stroke-width="3" stroke-opacity="1" stroke-miterlimit="4"/></g></g></g></g><g mask="url(#deea4c0f31)"><g transform="matrix(1, 0, 0, 1, 31, 512)"><g clip-path="url(#fb91f758cc)"><g clip-path="url(#ebea522550)"><path stroke-linecap="butt" transform="matrix(0.749613, 0.000378142, -0.000378337, 0.75, 5.385002, 4.025542)" fill="none" stroke-linejoin="miter" d="M -0.00216277 1.502404 L 908.482398 1.497481 " stroke="#0e3eb3" stroke-width="3" stroke-opacity="1" stroke-miterlimit="4"/></g></g></g></g><g mask="url(#51ef2e1e06)"><g transform="matrix(1, 0, 0, 1, 48, 261)"><g clip-path="url(#648bb610ba)"><g fill="#ffffff" fill-opacity="1"><g transform="translate(0.592119, 28.825251)"><g><path d="M 6.453125 0 L 2.5625 0 L 2.5625 -19.703125 L 6.453125 -19.703125 Z M 6.453125 0 "/></g></g></g><g fill="#ffffff" fill-opacity="1"><g transform="translate(9.614889, 28.825251)"><g><path d="M 2.140625 0 L 2.140625 -14.859375 L 5.71875 -14.859375 L 5.71875 -12.671875 L 6.015625 -12.609375 C 6.929688 -14.296875 8.429688 -15.140625 10.515625 -15.140625 C 12.222656 -15.140625 13.476562 -14.671875 14.28125 -13.734375 C 15.09375 -12.804688 15.5 -11.445312 15.5 -9.65625 L 15.5 0 L 11.765625 0 L 11.765625 -9.203125 C 11.765625 -10.191406 11.566406 -10.898438 11.171875 -11.328125 C 10.773438 -11.765625 10.140625 -11.984375 9.265625 -11.984375 C 8.203125 -11.984375 7.367188 -11.640625 6.765625 -10.953125 C 6.171875 -10.265625 5.875 -9.175781 5.875 -7.6875 L 5.875 0 Z M 2.140625 0 "/></g></g></g><g fill="#ffffff" fill-opacity="1"><g transform="translate(27.01402, 28.825251)"><g><path d="M 10.25 -3.546875 L 11.21875 -0.78125 C 10.8125 -0.445312 10.300781 -0.1875 9.6875 0 C 9.082031 0.1875 8.394531 0.28125 7.625 0.28125 C 6.019531 0.28125 4.796875 -0.15625 3.953125 -1.03125 C 3.117188 -1.90625 2.703125 -3.175781 2.703125 -4.84375 L 2.703125 -11.90625 L 0.4375 -11.90625 L 0.4375 -14.875 L 2.703125 -14.875 L 2.703125 -17.765625 L 6.4375 -18.375 L 6.4375 -14.875 L 10.65625 -14.875 L 10.65625 -11.90625 L 6.4375 -11.90625 L 6.4375 -5.125 C 6.4375 -4.382812 6.585938 -3.84375 6.890625 -3.5 C 7.203125 -3.164062 7.648438 -3 8.234375 -3 C 8.898438 -3 9.476562 -3.179688 9.96875 -3.546875 Z M 10.25 -3.546875 "/></g></g></g><g fill="#ffffff" fill-opacity="1"><g transform="translate(38.555085, 28.825251)"><g><path d="M 14.6875 -6.59375 L 5.140625 -6.59375 C 5.242188 -5.289062 5.609375 -4.347656 6.234375 -3.765625 C 6.867188 -3.179688 7.726562 -2.890625 8.8125 -2.890625 C 9.664062 -2.890625 10.359375 -3.046875 10.890625 -3.359375 C 11.421875 -3.679688 11.847656 -4.164062 12.171875 -4.8125 L 12.453125 -4.8125 L 14.921875 -3.21875 C 14.441406 -2.175781 13.710938 -1.332031 12.734375 -0.6875 C 11.753906 -0.0390625 10.445312 0.28125 8.8125 0.28125 C 7.269531 0.28125 5.941406 -0.0078125 4.828125 -0.59375 C 3.710938 -1.175781 2.847656 -2.046875 2.234375 -3.203125 C 1.628906 -4.359375 1.328125 -5.765625 1.328125 -7.421875 C 1.328125 -9.109375 1.644531 -10.53125 2.28125 -11.6875 C 2.925781 -12.851562 3.789062 -13.71875 4.875 -14.28125 C 5.957031 -14.851562 7.179688 -15.140625 8.546875 -15.140625 C 10.640625 -15.140625 12.242188 -14.582031 13.359375 -13.46875 C 14.484375 -12.351562 15.046875 -10.71875 15.046875 -8.5625 C 15.046875 -7.78125 15.019531 -7.175781 14.96875 -6.75 Z M 11.484375 -9 C 11.441406 -10.132812 11.175781 -10.957031 10.6875 -11.46875 C 10.195312 -11.988281 9.484375 -12.25 8.546875 -12.25 C 6.660156 -12.25 5.550781 -11.164062 5.21875 -9 Z M 11.484375 -9 "/></g></g></g><g fill="#ffffff" fill-opacity="1"><g transform="translate(54.701802, 28.825251)"><g><path d="M 2.140625 0 L 2.140625 -14.859375 L 5.765625 -14.859375 L 5.765625 -12.65625 L 6.046875 -12.59375 C 6.410156 -13.425781 6.882812 -14.035156 7.46875 -14.421875 C 8.050781 -14.804688 8.757812 -15 9.59375 -15 C 10.4375 -15 11.078125 -14.851562 11.515625 -14.5625 L 10.890625 -11.34375 L 10.609375 -11.296875 C 10.359375 -11.390625 10.117188 -11.457031 9.890625 -11.5 C 9.671875 -11.550781 9.398438 -11.578125 9.078125 -11.578125 C 8.035156 -11.578125 7.238281 -11.207031 6.6875 -10.46875 C 6.144531 -9.738281 5.875 -8.566406 5.875 -6.953125 L 5.875 0 Z M 2.140625 0 "/></g></g></g><g fill="#ffffff" fill-opacity="1"><g transform="translate(66.350601, 28.825251)"><g><path d="M 10.21875 0 L 5.78125 0 L 0.28125 -14.859375 L 4.1875 -14.859375 L 7.875 -4.265625 L 8.1875 -4.265625 L 11.890625 -14.859375 L 15.703125 -14.859375 Z M 10.21875 0 "/></g></g></g><g fill="#ffffff" fill-opacity="1"><g transform="translate(82.322249, 28.825251)"><g><path d="M 5.796875 0.28125 C 4.835938 0.28125 4.007812 0.109375 3.3125 -0.234375 C 2.613281 -0.585938 2.070312 -1.101562 1.6875 -1.78125 C 1.3125 -2.457031 1.125 -3.273438 1.125 -4.234375 C 1.125 -5.109375 1.3125 -5.84375 1.6875 -6.4375 C 2.070312 -7.039062 2.660156 -7.53125 3.453125 -7.90625 C 4.242188 -8.289062 5.273438 -8.585938 6.546875 -8.796875 C 7.429688 -8.941406 8.101562 -9.097656 8.5625 -9.265625 C 9.03125 -9.441406 9.34375 -9.632812 9.5 -9.84375 C 9.664062 -10.0625 9.75 -10.335938 9.75 -10.671875 C 9.75 -11.148438 9.582031 -11.515625 9.25 -11.765625 C 8.914062 -12.015625 8.363281 -12.140625 7.59375 -12.140625 C 6.769531 -12.140625 5.984375 -11.953125 5.234375 -11.578125 C 4.492188 -11.210938 3.847656 -10.726562 3.296875 -10.125 L 3.03125 -10.125 L 1.46875 -12.484375 C 2.21875 -13.328125 3.132812 -13.976562 4.21875 -14.4375 C 5.3125 -14.90625 6.5 -15.140625 7.78125 -15.140625 C 9.75 -15.140625 11.171875 -14.722656 12.046875 -13.890625 C 12.929688 -13.054688 13.375 -11.867188 13.375 -10.328125 L 13.375 -3.875 C 13.375 -3.21875 13.664062 -2.890625 14.25 -2.890625 C 14.476562 -2.890625 14.703125 -2.925781 14.921875 -3 L 15.109375 -2.953125 L 15.375 -0.34375 C 15.164062 -0.207031 14.875 -0.0976562 14.5 -0.015625 C 14.132812 0.0664062 13.734375 0.109375 13.296875 0.109375 C 12.410156 0.109375 11.71875 -0.0625 11.21875 -0.40625 C 10.71875 -0.75 10.359375 -1.28125 10.140625 -2 L 9.859375 -2.03125 C 9.128906 -0.488281 7.773438 0.28125 5.796875 0.28125 Z M 6.984375 -2.5 C 7.835938 -2.5 8.523438 -2.789062 9.046875 -3.375 C 9.566406 -3.957031 9.828125 -4.765625 9.828125 -5.796875 L 9.828125 -7.296875 L 9.5625 -7.359375 C 9.34375 -7.179688 9.050781 -7.03125 8.6875 -6.90625 C 8.320312 -6.78125 7.796875 -6.660156 7.109375 -6.546875 C 6.304688 -6.410156 5.726562 -6.175781 5.375 -5.84375 C 5.019531 -5.519531 4.84375 -5.054688 4.84375 -4.453125 C 4.84375 -3.816406 5.03125 -3.332031 5.40625 -3 C 5.78125 -2.664062 6.304688 -2.5 6.984375 -2.5 Z M 6.984375 -2.5 "/></g></g></g><g fill="#ffffff" fill-opacity="1"><g transform="translate(97.984161, 28.825251)"><g><path d="M 6.171875 0.28125 C 4.828125 0.28125 3.800781 -0.078125 3.09375 -0.796875 C 2.394531 -1.523438 2.046875 -2.625 2.046875 -4.09375 L 2.046875 -20.828125 L 5.78125 -20.828125 L 5.78125 -4.25 C 5.78125 -3.34375 6.15625 -2.890625 6.90625 -2.890625 C 7.125 -2.890625 7.351562 -2.921875 7.59375 -2.984375 L 7.78125 -2.9375 L 8.125 -0.0625 C 7.914062 0.0390625 7.640625 0.125 7.296875 0.1875 C 6.960938 0.25 6.585938 0.28125 6.171875 0.28125 Z M 6.171875 0.28125 "/></g></g></g><g fill="#ffffff" fill-opacity="1"><g transform="translate(106.522125, 28.825251)"><g/></g></g><g fill="#ffffff" fill-opacity="1"><g transform="translate(113.026599, 28.825251)"><g><path d="M 4 -16.640625 C 3.320312 -16.640625 2.769531 -16.84375 2.34375 -17.25 C 1.925781 -17.65625 1.71875 -18.1875 1.71875 -18.84375 C 1.71875 -19.476562 1.925781 -20 2.34375 -20.40625 C 2.769531 -20.8125 3.320312 -21.015625 4 -21.015625 C 4.445312 -21.015625 4.84375 -20.921875 5.1875 -20.734375 C 5.539062 -20.546875 5.816406 -20.285156 6.015625 -19.953125 C 6.210938 -19.628906 6.3125 -19.257812 6.3125 -18.84375 C 6.3125 -18.414062 6.210938 -18.035156 6.015625 -17.703125 C 5.816406 -17.367188 5.539062 -17.109375 5.1875 -16.921875 C 4.84375 -16.734375 4.445312 -16.640625 4 -16.640625 Z M 2.140625 0 L 2.140625 -14.859375 L 5.875 -14.859375 L 5.875 0 Z M 2.140625 0 "/></g></g></g><g fill="#ffffff" fill-opacity="1"><g transform="translate(121.02589, 28.825251)"><g><path d="M 2.140625 0 L 2.140625 -14.859375 L 5.71875 -14.859375 L 5.71875 -12.671875 L 6.015625 -12.609375 C 6.929688 -14.296875 8.429688 -15.140625 10.515625 -15.140625 C 12.222656 -15.140625 13.476562 -14.671875 14.28125 -13.734375 C 15.09375 -12.804688 15.5 -11.445312 15.5 -9.65625 L 15.5 0 L 11.765625 0 L 11.765625 -9.203125 C 11.765625 -10.191406 11.566406 -10.898438 11.171875 -11.328125 C 10.773438 -11.765625 10.140625 -11.984375 9.265625 -11.984375 C 8.203125 -11.984375 7.367188 -11.640625 6.765625 -10.953125 C 6.171875 -10.265625 5.875 -9.175781 5.875 -7.6875 L 5.875 0 Z M 2.140625 0 "/></g></g></g><g fill="#ffffff" fill-opacity="1"><g transform="translate(138.425021, 28.825251)"><g/></g></g><g fill="#ffffff" fill-opacity="1"><g transform="translate(144.929495, 28.825251)"><g><path d="M 15.046875 -19.703125 L 15.046875 -16.4375 L 6.453125 -16.4375 L 6.453125 -11.21875 L 14.25 -11.21875 L 14.25 -8 L 6.453125 -8 L 6.453125 0 L 2.5625 0 L 2.5625 -19.703125 Z M 15.046875 -19.703125 "/></g></g></g><g fill="#ffffff" fill-opacity="1"><g transform="translate(160.847276, 28.825251)"><g><path d="M 10.765625 0.28125 C 8.953125 0.28125 7.351562 -0.09375 5.96875 -0.84375 C 4.582031 -1.601562 3.5 -2.738281 2.71875 -4.25 C 1.9375 -5.757812 1.546875 -7.625 1.546875 -9.84375 C 1.546875 -12.0625 1.9375 -13.925781 2.71875 -15.4375 C 3.5 -16.957031 4.582031 -18.09375 5.96875 -18.84375 C 7.351562 -19.601562 8.953125 -19.984375 10.765625 -19.984375 C 12.660156 -19.984375 14.269531 -19.613281 15.59375 -18.875 C 16.914062 -18.132812 17.863281 -17.003906 18.4375 -15.484375 L 15.59375 -13.75 L 15.25 -13.75 C 14.832031 -14.78125 14.257812 -15.515625 13.53125 -15.953125 C 12.8125 -16.398438 11.890625 -16.625 10.765625 -16.625 C 9.128906 -16.625 7.851562 -16.082031 6.9375 -15 C 6.019531 -13.914062 5.5625 -12.195312 5.5625 -9.84375 C 5.5625 -7.5 6.019531 -5.785156 6.9375 -4.703125 C 7.851562 -3.617188 9.128906 -3.078125 10.765625 -3.078125 C 13.328125 -3.078125 14.894531 -4.320312 15.46875 -6.8125 L 15.796875 -6.8125 L 18.671875 -5.328125 C 18.128906 -3.453125 17.207031 -2.046875 15.90625 -1.109375 C 14.601562 -0.179688 12.890625 0.28125 10.765625 0.28125 Z M 10.765625 0.28125 "/></g></g></g><g fill="#ffffff" fill-opacity="1"><g transform="translate(180.158696, 28.825251)"><g><path d="M 15.046875 -19.703125 L 15.046875 -16.4375 L 6.453125 -16.4375 L 6.453125 -11.21875 L 14.25 -11.21875 L 14.25 -8 L 6.453125 -8 L 6.453125 0 L 2.5625 0 L 2.5625 -19.703125 Z M 15.046875 -19.703125 "/></g></g></g><g fill="#ffffff" fill-opacity="1"><g transform="translate(196.076477, 28.825251)"><g><path d="M 18.90625 0 L 14.8125 0 L 13.328125 -4.546875 L 5.78125 -4.546875 L 4.296875 0 L 0.296875 0 L 7.09375 -19.703125 L 12.09375 -19.703125 Z M 9.359375 -15.59375 L 6.828125 -7.8125 L 12.25 -7.8125 L 9.703125 -15.59375 Z M 9.359375 -15.59375 "/></g></g></g><g fill="#ffffff" fill-opacity="1"><g transform="translate(215.266695, 28.825251)"><g/></g></g><g fill="#ffffff" fill-opacity="1"><g transform="translate(221.771169, 28.825251)"><g><path d="M 6.015625 2.8125 C 4.796875 1.300781 3.8125 -0.378906 3.0625 -2.234375 C 2.320312 -4.097656 1.953125 -6.351562 1.953125 -9 C 1.953125 -11.65625 2.320312 -13.910156 3.0625 -15.765625 C 3.8125 -17.628906 4.796875 -19.316406 6.015625 -20.828125 L 8.890625 -20.828125 L 8.953125 -20.546875 C 7.972656 -18.878906 7.21875 -17.148438 6.6875 -15.359375 C 6.164062 -13.578125 5.90625 -11.457031 5.90625 -9 C 5.90625 -6.550781 6.164062 -4.429688 6.6875 -2.640625 C 7.21875 -0.847656 7.972656 0.875 8.953125 2.53125 L 8.890625 2.8125 Z M 6.015625 2.8125 "/></g></g></g><g fill="#ffffff" fill-opacity="1"><g transform="translate(231.561547, 28.825251)"><g><path d="M 4.328125 0 L 0.34375 0 L 6.171875 -10.125 L 0.625 -19.703125 L 4.75 -19.703125 L 8.84375 -12.640625 L 9.171875 -12.640625 L 13.328125 -19.703125 L 17.265625 -19.703125 L 11.703125 -10.125 L 17.546875 0 L 13.421875 0 L 9.046875 -7.59375 L 8.703125 -7.59375 Z M 4.328125 0 "/></g></g></g><g fill="#ffffff" fill-opacity="1"><g transform="translate(249.432017, 28.825251)"><g><path d="M 10.734375 0.28125 C 8.929688 0.28125 7.335938 -0.0820312 5.953125 -0.8125 C 4.578125 -1.550781 3.5 -2.675781 2.71875 -4.1875 C 1.9375 -5.707031 1.546875 -7.59375 1.546875 -9.84375 C 1.546875 -12.101562 1.9375 -13.988281 2.71875 -15.5 C 3.5 -17.007812 4.578125 -18.132812 5.953125 -18.875 C 7.335938 -19.613281 8.929688 -19.984375 10.734375 -19.984375 C 12.546875 -19.984375 14.132812 -19.613281 15.5 -18.875 C 16.875 -18.144531 17.953125 -17.019531 18.734375 -15.5 C 19.515625 -13.988281 19.90625 -12.101562 19.90625 -9.84375 C 19.90625 -7.59375 19.515625 -5.707031 18.734375 -4.1875 C 17.953125 -2.664062 16.875 -1.539062 15.5 -0.8125 C 14.132812 -0.0820312 12.546875 0.28125 10.734375 0.28125 Z M 10.734375 -3.09375 C 12.410156 -3.09375 13.6875 -3.628906 14.5625 -4.703125 C 15.445312 -5.773438 15.890625 -7.488281 15.890625 -9.84375 C 15.890625 -12.195312 15.445312 -13.910156 14.5625 -14.984375 C 13.6875 -16.066406 12.410156 -16.609375 10.734375 -16.609375 C 9.054688 -16.609375 7.773438 -16.066406 6.890625 -14.984375 C 6.003906 -13.910156 5.5625 -12.195312 5.5625 -9.84375 C 5.5625 -7.488281 6.003906 -5.773438 6.890625 -4.703125 C 7.773438 -3.628906 9.054688 -3.09375 10.734375 -3.09375 Z M 10.734375 -3.09375 "/></g></g></g><g fill="#ffffff" fill-opacity="1"><g transform="translate(270.884661, 28.825251)"><g><path d="M 15.046875 -19.703125 L 15.046875 -16.4375 L 6.453125 -16.4375 L 6.453125 -11.21875 L 14.25 -11.21875 L 14.25 -8 L 6.453125 -8 L 6.453125 0 L 2.5625 0 L 2.5625 -19.703125 Z M 15.046875 -19.703125 "/></g></g></g><g fill="#ffffff" fill-opacity="1"><g transform="translate(286.802442, 28.825251)"><g><path d="M 0.84375 2.53125 C 1.46875 1.457031 2 0.378906 2.4375 -0.703125 C 2.875 -1.796875 3.222656 -3.03125 3.484375 -4.40625 C 3.753906 -5.78125 3.890625 -7.3125 3.890625 -9 C 3.890625 -10.6875 3.753906 -12.21875 3.484375 -13.59375 C 3.222656 -14.976562 2.875 -16.210938 2.4375 -17.296875 C 2.007812 -18.390625 1.476562 -19.472656 0.84375 -20.546875 L 0.90625 -20.828125 L 3.765625 -20.828125 C 4.535156 -19.867188 5.21875 -18.851562 5.8125 -17.78125 C 6.40625 -16.707031 6.890625 -15.4375 7.265625 -13.96875 C 7.648438 -12.5 7.84375 -10.84375 7.84375 -9 C 7.84375 -6.351562 7.46875 -4.097656 6.71875 -2.234375 C 5.96875 -0.378906 4.984375 1.300781 3.765625 2.8125 L 0.90625 2.8125 Z M 0.84375 2.53125 "/></g></g></g></g></g></g><g mask="url(#d0115d659c)"><g transform="matrix(1, 0, 0, 1, 507, 261)"><g clip-path="url(#7cd4d25d48)"><g fill="#ffffff" fill-opacity="1"><g transform="translate(1.026647, 28.825251)"><g><path d="M 9.40625 0 L 5.046875 0 L 0.53125 -19.703125 L 4.421875 -19.703125 L 7.390625 -5.84375 L 7.734375 -5.84375 L 11.265625 -19.703125 L 14.59375 -19.703125 L 18.1875 -5.84375 L 18.53125 -5.84375 L 21.515625 -19.703125 L 25.265625 -19.703125 L 20.765625 0 L 16.390625 0 L 12.953125 -12.703125 L 12.671875 -12.703125 Z M 9.40625 0 "/></g></g></g><g fill="#ffffff" fill-opacity="1"><g transform="translate(26.80214, 28.825251)"><g><path d="M 4 -16.640625 C 3.320312 -16.640625 2.769531 -16.84375 2.34375 -17.25 C 1.925781 -17.65625 1.71875 -18.1875 1.71875 -18.84375 C 1.71875 -19.476562 1.925781 -20 2.34375 -20.40625 C 2.769531 -20.8125 3.320312 -21.015625 4 -21.015625 C 4.445312 -21.015625 4.84375 -20.921875 5.1875 -20.734375 C 5.539062 -20.546875 5.816406 -20.285156 6.015625 -19.953125 C 6.210938 -19.628906 6.3125 -19.257812 6.3125 -18.84375 C 6.3125 -18.414062 6.210938 -18.035156 6.015625 -17.703125 C 5.816406 -17.367188 5.539062 -17.109375 5.1875 -16.921875 C 4.84375 -16.734375 4.445312 -16.640625 4 -16.640625 Z M 2.140625 0 L 2.140625 -14.859375 L 5.875 -14.859375 L 5.875 0 Z M 2.140625 0 "/></g></g></g><g fill="#ffffff" fill-opacity="1"><g transform="translate(34.801431, 28.825251)"><g><path d="M 10.25 -3.546875 L 11.21875 -0.78125 C 10.8125 -0.445312 10.300781 -0.1875 9.6875 0 C 9.082031 0.1875 8.394531 0.28125 7.625 0.28125 C 6.019531 0.28125 4.796875 -0.15625 3.953125 -1.03125 C 3.117188 -1.90625 2.703125 -3.175781 2.703125 -4.84375 L 2.703125 -11.90625 L 0.4375 -11.90625 L 0.4375 -14.875 L 2.703125 -14.875 L 2.703125 -17.765625 L 6.4375 -18.375 L 6.4375 -14.875 L 10.65625 -14.875 L 10.65625 -11.90625 L 6.4375 -11.90625 L 6.4375 -5.125 C 6.4375 -4.382812 6.585938 -3.84375 6.890625 -3.5 C 7.203125 -3.164062 7.648438 -3 8.234375 -3 C 8.898438 -3 9.476562 -3.179688 9.96875 -3.546875 Z M 10.25 -3.546875 "/></g></g></g><g fill="#ffffff" fill-opacity="1"><g transform="translate(46.342495, 28.825251)"><g><path d="M 2.140625 0 L 2.140625 -20.828125 L 5.875 -20.828125 L 5.875 -12.921875 L 6.15625 -12.875 C 6.65625 -13.59375 7.257812 -14.148438 7.96875 -14.546875 C 8.6875 -14.941406 9.554688 -15.140625 10.578125 -15.140625 C 13.859375 -15.140625 15.5 -13.28125 15.5 -9.5625 L 15.5 0 L 11.765625 0 L 11.765625 -9.09375 C 11.765625 -10.101562 11.5625 -10.835938 11.15625 -11.296875 C 10.75 -11.753906 10.117188 -11.984375 9.265625 -11.984375 C 8.222656 -11.984375 7.394531 -11.632812 6.78125 -10.9375 C 6.175781 -10.25 5.875 -9.164062 5.875 -7.6875 L 5.875 0 Z M 2.140625 0 "/></g></g></g><g fill="#ffffff" fill-opacity="1"><g transform="translate(63.741627, 28.825251)"><g><path d="M 7.34375 0.28125 C 6.164062 0.28125 5.125 0 4.21875 -0.5625 C 3.320312 -1.132812 2.613281 -2 2.09375 -3.15625 C 1.582031 -4.3125 1.328125 -5.734375 1.328125 -7.421875 C 1.328125 -9.117188 1.585938 -10.546875 2.109375 -11.703125 C 2.640625 -12.859375 3.367188 -13.71875 4.296875 -14.28125 C 5.234375 -14.851562 6.3125 -15.140625 7.53125 -15.140625 C 8.457031 -15.140625 9.257812 -14.976562 9.9375 -14.65625 C 10.613281 -14.34375 11.1875 -13.847656 11.65625 -13.171875 L 11.9375 -13.25 L 11.9375 -20.828125 L 15.671875 -20.828125 L 15.671875 0 L 11.9375 0 L 11.9375 -1.921875 L 11.65625 -1.984375 C 11.238281 -1.273438 10.671875 -0.71875 9.953125 -0.3125 C 9.234375 0.0820312 8.363281 0.28125 7.34375 0.28125 Z M 8.5625 -2.890625 C 9.601562 -2.890625 10.429688 -3.265625 11.046875 -4.015625 C 11.660156 -4.765625 11.96875 -5.898438 11.96875 -7.421875 C 11.96875 -8.953125 11.660156 -10.09375 11.046875 -10.84375 C 10.429688 -11.601562 9.601562 -11.984375 8.5625 -11.984375 C 7.457031 -11.984375 6.613281 -11.613281 6.03125 -10.875 C 5.457031 -10.144531 5.171875 -8.992188 5.171875 -7.421875 C 5.171875 -5.859375 5.457031 -4.710938 6.03125 -3.984375 C 6.613281 -3.253906 7.457031 -2.890625 8.5625 -2.890625 Z M 8.5625 -2.890625 "/></g></g></g><g fill="#ffffff" fill-opacity="1"><g transform="translate(81.544763, 28.825251)"><g><path d="M 2.140625 0 L 2.140625 -14.859375 L 5.765625 -14.859375 L 5.765625 -12.65625 L 6.046875 -12.59375 C 6.410156 -13.425781 6.882812 -14.035156 7.46875 -14.421875 C 8.050781 -14.804688 8.757812 -15 9.59375 -15 C 10.4375 -15 11.078125 -14.851562 11.515625 -14.5625 L 10.890625 -11.34375 L 10.609375 -11.296875 C 10.359375 -11.390625 10.117188 -11.457031 9.890625 -11.5 C 9.671875 -11.550781 9.398438 -11.578125 9.078125 -11.578125 C 8.035156 -11.578125 7.238281 -11.207031 6.6875 -10.46875 C 6.144531 -9.738281 5.875 -8.566406 5.875 -6.953125 L 5.875 0 Z M 2.140625 0 "/></g></g></g><g fill="#ffffff" fill-opacity="1"><g transform="translate(93.193562, 28.825251)"><g><path d="M 5.796875 0.28125 C 4.835938 0.28125 4.007812 0.109375 3.3125 -0.234375 C 2.613281 -0.585938 2.070312 -1.101562 1.6875 -1.78125 C 1.3125 -2.457031 1.125 -3.273438 1.125 -4.234375 C 1.125 -5.109375 1.3125 -5.84375 1.6875 -6.4375 C 2.070312 -7.039062 2.660156 -7.53125 3.453125 -7.90625 C 4.242188 -8.289062 5.273438 -8.585938 6.546875 -8.796875 C 7.429688 -8.941406 8.101562 -9.097656 8.5625 -9.265625 C 9.03125 -9.441406 9.34375 -9.632812 9.5 -9.84375 C 9.664062 -10.0625 9.75 -10.335938 9.75 -10.671875 C 9.75 -11.148438 9.582031 -11.515625 9.25 -11.765625 C 8.914062 -12.015625 8.363281 -12.140625 7.59375 -12.140625 C 6.769531 -12.140625 5.984375 -11.953125 5.234375 -11.578125 C 4.492188 -11.210938 3.847656 -10.726562 3.296875 -10.125 L 3.03125 -10.125 L 1.46875 -12.484375 C 2.21875 -13.328125 3.132812 -13.976562 4.21875 -14.4375 C 5.3125 -14.90625 6.5 -15.140625 7.78125 -15.140625 C 9.75 -15.140625 11.171875 -14.722656 12.046875 -13.890625 C 12.929688 -13.054688 13.375 -11.867188 13.375 -10.328125 L 13.375 -3.875 C 13.375 -3.21875 13.664062 -2.890625 14.25 -2.890625 C 14.476562 -2.890625 14.703125 -2.925781 14.921875 -3 L 15.109375 -2.953125 L 15.375 -0.34375 C 15.164062 -0.207031 14.875 -0.0976562 14.5 -0.015625 C 14.132812 0.0664062 13.734375 0.109375 13.296875 0.109375 C 12.410156 0.109375 11.71875 -0.0625 11.21875 -0.40625 C 10.71875 -0.75 10.359375 -1.28125 10.140625 -2 L 9.859375 -2.03125 C 9.128906 -0.488281 7.773438 0.28125 5.796875 0.28125 Z M 6.984375 -2.5 C 7.835938 -2.5 8.523438 -2.789062 9.046875 -3.375 C 9.566406 -3.957031 9.828125 -4.765625 9.828125 -5.796875 L 9.828125 -7.296875 L 9.5625 -7.359375 C 9.34375 -7.179688 9.050781 -7.03125 8.6875 -6.90625 C 8.320312 -6.78125 7.796875 -6.660156 7.109375 -6.546875 C 6.304688 -6.410156 5.726562 -6.175781 5.375 -5.84375 C 5.019531 -5.519531 4.84375 -5.054688 4.84375 -4.453125 C 4.84375 -3.816406 5.03125 -3.332031 5.40625 -3 C 5.78125 -2.664062 6.304688 -2.5 6.984375 -2.5 Z M 6.984375 -2.5 "/></g></g></g><g fill="#ffffff" fill-opacity="1"><g transform="translate(108.855473, 28.825251)"><g><path d="M 7.96875 0 L 4.0625 0 L 0.53125 -14.859375 L 4 -14.859375 L 6.1875 -4.8125 L 6.46875 -4.8125 L 9.296875 -14.859375 L 12.53125 -14.859375 L 15.453125 -4.8125 L 15.734375 -4.8125 L 17.84375 -14.859375 L 21.203125 -14.859375 L 17.71875 0 L 13.796875 0 L 10.984375 -10.125 L 10.703125 -10.125 Z M 7.96875 0 "/></g></g></g><g fill="#ffffff" fill-opacity="1"><g transform="translate(130.577454, 28.825251)"><g><path d="M 5.796875 0.28125 C 4.835938 0.28125 4.007812 0.109375 3.3125 -0.234375 C 2.613281 -0.585938 2.070312 -1.101562 1.6875 -1.78125 C 1.3125 -2.457031 1.125 -3.273438 1.125 -4.234375 C 1.125 -5.109375 1.3125 -5.84375 1.6875 -6.4375 C 2.070312 -7.039062 2.660156 -7.53125 3.453125 -7.90625 C 4.242188 -8.289062 5.273438 -8.585938 6.546875 -8.796875 C 7.429688 -8.941406 8.101562 -9.097656 8.5625 -9.265625 C 9.03125 -9.441406 9.34375 -9.632812 9.5 -9.84375 C 9.664062 -10.0625 9.75 -10.335938 9.75 -10.671875 C 9.75 -11.148438 9.582031 -11.515625 9.25 -11.765625 C 8.914062 -12.015625 8.363281 -12.140625 7.59375 -12.140625 C 6.769531 -12.140625 5.984375 -11.953125 5.234375 -11.578125 C 4.492188 -11.210938 3.847656 -10.726562 3.296875 -10.125 L 3.03125 -10.125 L 1.46875 -12.484375 C 2.21875 -13.328125 3.132812 -13.976562 4.21875 -14.4375 C 5.3125 -14.90625 6.5 -15.140625 7.78125 -15.140625 C 9.75 -15.140625 11.171875 -14.722656 12.046875 -13.890625 C 12.929688 -13.054688 13.375 -11.867188 13.375 -10.328125 L 13.375 -3.875 C 13.375 -3.21875 13.664062 -2.890625 14.25 -2.890625 C 14.476562 -2.890625 14.703125 -2.925781 14.921875 -3 L 15.109375 -2.953125 L 15.375 -0.34375 C 15.164062 -0.207031 14.875 -0.0976562 14.5 -0.015625 C 14.132812 0.0664062 13.734375 0.109375 13.296875 0.109375 C 12.410156 0.109375 11.71875 -0.0625 11.21875 -0.40625 C 10.71875 -0.75 10.359375 -1.28125 10.140625 -2 L 9.859375 -2.03125 C 9.128906 -0.488281 7.773438 0.28125 5.796875 0.28125 Z M 6.984375 -2.5 C 7.835938 -2.5 8.523438 -2.789062 9.046875 -3.375 C 9.566406 -3.957031 9.828125 -4.765625 9.828125 -5.796875 L 9.828125 -7.296875 L 9.5625 -7.359375 C 9.34375 -7.179688 9.050781 -7.03125 8.6875 -6.90625 C 8.320312 -6.78125 7.796875 -6.660156 7.109375 -6.546875 C 6.304688 -6.410156 5.726562 -6.175781 5.375 -5.84375 C 5.019531 -5.519531 4.84375 -5.054688 4.84375 -4.453125 C 4.84375 -3.816406 5.03125 -3.332031 5.40625 -3 C 5.78125 -2.664062 6.304688 -2.5 6.984375 -2.5 Z M 6.984375 -2.5 "/></g></g></g><g fill="#ffffff" fill-opacity="1"><g transform="translate(146.239365, 28.825251)"><g><path d="M 6.171875 0.28125 C 4.828125 0.28125 3.800781 -0.078125 3.09375 -0.796875 C 2.394531 -1.523438 2.046875 -2.625 2.046875 -4.09375 L 2.046875 -20.828125 L 5.78125 -20.828125 L 5.78125 -4.25 C 5.78125 -3.34375 6.15625 -2.890625 6.90625 -2.890625 C 7.125 -2.890625 7.351562 -2.921875 7.59375 -2.984375 L 7.78125 -2.9375 L 8.125 -0.0625 C 7.914062 0.0390625 7.640625 0.125 7.296875 0.1875 C 6.960938 0.25 6.585938 0.28125 6.171875 0.28125 Z M 6.171875 0.28125 "/></g></g></g><g fill="#ffffff" fill-opacity="1"><g transform="translate(154.777329, 28.825251)"><g/></g></g><g fill="#ffffff" fill-opacity="1"><g transform="translate(161.281803, 28.825251)"><g><path d="M 2.59375 0 L 2.59375 -11.90625 L 0.5 -11.90625 L 0.5 -14.875 L 2.59375 -14.875 C 2.445312 -15.5 2.375 -16.085938 2.375 -16.640625 C 2.375 -17.578125 2.585938 -18.378906 3.015625 -19.046875 C 3.453125 -19.722656 4.070312 -20.234375 4.875 -20.578125 C 5.6875 -20.929688 6.648438 -21.109375 7.765625 -21.109375 C 9.398438 -21.109375 10.625 -20.828125 11.4375 -20.265625 L 10.5625 -17.515625 L 10.28125 -17.46875 C 9.71875 -17.851562 9.003906 -18.046875 8.140625 -18.046875 C 7.460938 -18.046875 6.953125 -17.882812 6.609375 -17.5625 C 6.273438 -17.238281 6.109375 -16.789062 6.109375 -16.21875 C 6.109375 -15.976562 6.125 -15.753906 6.15625 -15.546875 C 6.195312 -15.347656 6.253906 -15.125 6.328125 -14.875 L 10.578125 -14.875 L 10.578125 -11.90625 L 6.328125 -11.90625 L 6.328125 0 Z M 2.59375 0 "/></g></g></g><g fill="#ffffff" fill-opacity="1"><g transform="translate(172.001392, 28.825251)"><g><path d="M 14.6875 -6.59375 L 5.140625 -6.59375 C 5.242188 -5.289062 5.609375 -4.347656 6.234375 -3.765625 C 6.867188 -3.179688 7.726562 -2.890625 8.8125 -2.890625 C 9.664062 -2.890625 10.359375 -3.046875 10.890625 -3.359375 C 11.421875 -3.679688 11.847656 -4.164062 12.171875 -4.8125 L 12.453125 -4.8125 L 14.921875 -3.21875 C 14.441406 -2.175781 13.710938 -1.332031 12.734375 -0.6875 C 11.753906 -0.0390625 10.445312 0.28125 8.8125 0.28125 C 7.269531 0.28125 5.941406 -0.0078125 4.828125 -0.59375 C 3.710938 -1.175781 2.847656 -2.046875 2.234375 -3.203125 C 1.628906 -4.359375 1.328125 -5.765625 1.328125 -7.421875 C 1.328125 -9.109375 1.644531 -10.53125 2.28125 -11.6875 C 2.925781 -12.851562 3.789062 -13.71875 4.875 -14.28125 C 5.957031 -14.851562 7.179688 -15.140625 8.546875 -15.140625 C 10.640625 -15.140625 12.242188 -14.582031 13.359375 -13.46875 C 14.484375 -12.351562 15.046875 -10.71875 15.046875 -8.5625 C 15.046875 -7.78125 15.019531 -7.175781 14.96875 -6.75 Z M 11.484375 -9 C 11.441406 -10.132812 11.175781 -10.957031 10.6875 -11.46875 C 10.195312 -11.988281 9.484375 -12.25 8.546875 -12.25 C 6.660156 -12.25 5.550781 -11.164062 5.21875 -9 Z M 11.484375 -9 "/></g></g></g><g fill="#ffffff" fill-opacity="1"><g transform="translate(188.148109, 28.825251)"><g><path d="M 14.6875 -6.59375 L 5.140625 -6.59375 C 5.242188 -5.289062 5.609375 -4.347656 6.234375 -3.765625 C 6.867188 -3.179688 7.726562 -2.890625 8.8125 -2.890625 C 9.664062 -2.890625 10.359375 -3.046875 10.890625 -3.359375 C 11.421875 -3.679688 11.847656 -4.164062 12.171875 -4.8125 L 12.453125 -4.8125 L 14.921875 -3.21875 C 14.441406 -2.175781 13.710938 -1.332031 12.734375 -0.6875 C 11.753906 -0.0390625 10.445312 0.28125 8.8125 0.28125 C 7.269531 0.28125 5.941406 -0.0078125 4.828125 -0.59375 C 3.710938 -1.175781 2.847656 -2.046875 2.234375 -3.203125 C 1.628906 -4.359375 1.328125 -5.765625 1.328125 -7.421875 C 1.328125 -9.109375 1.644531 -10.53125 2.28125 -11.6875 C 2.925781 -12.851562 3.789062 -13.71875 4.875 -14.28125 C 5.957031 -14.851562 7.179688 -15.140625 8.546875 -15.140625 C 10.640625 -15.140625 12.242188 -14.582031 13.359375 -13.46875 C 14.484375 -12.351562 15.046875 -10.71875 15.046875 -8.5625 C 15.046875 -7.78125 15.019531 -7.175781 14.96875 -6.75 Z M 11.484375 -9 C 11.441406 -10.132812 11.175781 -10.957031 10.6875 -11.46875 C 10.195312 -11.988281 9.484375 -12.25 8.546875 -12.25 C 6.660156 -12.25 5.550781 -11.164062 5.21875 -9 Z M 11.484375 -9 "/></g></g></g><g fill="#ffffff" fill-opacity="1"><g transform="translate(204.294826, 28.825251)"><g><path d="M 6.953125 0.28125 C 5.941406 0.28125 5.007812 0.160156 4.15625 -0.078125 C 3.3125 -0.316406 2.59375 -0.644531 2 -1.0625 C 1.40625 -1.476562 0.960938 -1.957031 0.671875 -2.5 L 2.75 -4.734375 L 3.03125 -4.734375 C 3.519531 -4.066406 4.101562 -3.566406 4.78125 -3.234375 C 5.457031 -2.898438 6.191406 -2.734375 6.984375 -2.734375 C 7.710938 -2.734375 8.257812 -2.863281 8.625 -3.125 C 8.988281 -3.382812 9.171875 -3.757812 9.171875 -4.25 C 9.171875 -4.625 9.035156 -4.9375 8.765625 -5.1875 C 8.503906 -5.445312 8.078125 -5.648438 7.484375 -5.796875 L 5.53125 -6.265625 C 4.050781 -6.617188 2.972656 -7.15625 2.296875 -7.875 C 1.617188 -8.59375 1.28125 -9.507812 1.28125 -10.625 C 1.28125 -11.550781 1.515625 -12.351562 1.984375 -13.03125 C 2.453125 -13.71875 3.113281 -14.238281 3.96875 -14.59375 C 4.832031 -14.957031 5.835938 -15.140625 6.984375 -15.140625 C 8.316406 -15.140625 9.421875 -14.945312 10.296875 -14.5625 C 11.179688 -14.175781 11.875 -13.660156 12.375 -13.015625 L 10.375 -10.859375 L 10.109375 -10.859375 C 9.691406 -11.328125 9.222656 -11.664062 8.703125 -11.875 C 8.191406 -12.09375 7.617188 -12.203125 6.984375 -12.203125 C 5.503906 -12.203125 4.765625 -11.742188 4.765625 -10.828125 C 4.765625 -10.441406 4.898438 -10.128906 5.171875 -9.890625 C 5.453125 -9.648438 5.9375 -9.453125 6.625 -9.296875 L 8.46875 -8.890625 C 9.96875 -8.566406 11.066406 -8.046875 11.765625 -7.328125 C 12.460938 -6.617188 12.8125 -5.660156 12.8125 -4.453125 C 12.8125 -3.515625 12.578125 -2.6875 12.109375 -1.96875 C 11.640625 -1.25 10.960938 -0.691406 10.078125 -0.296875 C 9.203125 0.0859375 8.160156 0.28125 6.953125 0.28125 Z M 6.953125 0.28125 "/></g></g></g><g fill="#ffffff" fill-opacity="1"><g transform="translate(217.991644, 28.825251)"><g/></g></g></g></g></g><g mask="url(#be118a0fc7)"><g transform="matrix(1, 0, 0, 1, 33, 350)"><g clip-path="url(#0d433e92f4)"><g fill="#2e2e2e" fill-opacity="1"><g transform="translate(0.514757, 29.821769)"><g><path d="M 9.640625 -19.703125 C 12.835938 -19.703125 15.28125 -18.875 16.96875 -17.21875 C 18.65625 -15.5625 19.5 -13.101562 19.5 -9.84375 C 19.5 -6.59375 18.65625 -4.140625 16.96875 -2.484375 C 15.28125 -0.828125 12.835938 0 9.640625 0 L 2.5625 0 L 2.5625 -19.703125 Z M 9.421875 -3.28125 C 11.453125 -3.28125 12.96875 -3.796875 13.96875 -4.828125 C 14.976562 -5.867188 15.484375 -7.539062 15.484375 -9.84375 C 15.484375 -12.15625 14.976562 -13.828125 13.96875 -14.859375 C 12.96875 -15.898438 11.453125 -16.421875 9.421875 -16.421875 L 6.453125 -16.421875 L 6.453125 -3.28125 Z M 9.421875 -3.28125 "/></g></g><g transform="translate(21.572779, 29.821769)"><g><path d="M 14.6875 -6.59375 L 5.140625 -6.59375 C 5.242188 -5.289062 5.609375 -4.347656 6.234375 -3.765625 C 6.867188 -3.179688 7.726562 -2.890625 8.8125 -2.890625 C 9.664062 -2.890625 10.359375 -3.046875 10.890625 -3.359375 C 11.421875 -3.679688 11.847656 -4.164062 12.171875 -4.8125 L 12.453125 -4.8125 L 14.921875 -3.21875 C 14.441406 -2.175781 13.710938 -1.332031 12.734375 -0.6875 C 11.753906 -0.0390625 10.445312 0.28125 8.8125 0.28125 C 7.269531 0.28125 5.941406 -0.0078125 4.828125 -0.59375 C 3.710938 -1.175781 2.847656 -2.046875 2.234375 -3.203125 C 1.628906 -4.359375 1.328125 -5.765625 1.328125 -7.421875 C 1.328125 -9.109375 1.644531 -10.53125 2.28125 -11.6875 C 2.925781 -12.851562 3.789062 -13.71875 4.875 -14.28125 C 5.957031 -14.851562 7.179688 -15.140625 8.546875 -15.140625 C 10.640625 -15.140625 12.242188 -14.582031 13.359375 -13.46875 C 14.484375 -12.351562 15.046875 -10.71875 15.046875 -8.5625 C 15.046875 -7.78125 15.019531 -7.175781 14.96875 -6.75 Z M 11.484375 -9 C 11.441406 -10.132812 11.175781 -10.957031 10.6875 -11.46875 C 10.195312 -11.988281 9.484375 -12.25 8.546875 -12.25 C 6.660156 -12.25 5.550781 -11.164062 5.21875 -9 Z M 11.484375 -9 "/></g></g><g transform="translate(37.726694, 29.821769)"><g/></g><g transform="translate(44.234067, 29.821769)"><g><path d="M 1.03125 0 L 1.03125 -3.21875 L 5.796875 -3.21875 L 5.796875 -15.484375 L 5.484375 -15.5625 C 4.804688 -15.238281 4.140625 -14.984375 3.484375 -14.796875 C 2.835938 -14.609375 2.097656 -14.457031 1.265625 -14.34375 L 1.265625 -17.671875 C 3.453125 -18.128906 5.21875 -18.804688 6.5625 -19.703125 L 9.640625 -19.703125 L 9.640625 -3.21875 L 13.890625 -3.21875 L 13.890625 0 Z M 1.03125 0 "/></g></g><g transform="translate(58.771243, 29.821769)"><g/></g><g transform="translate(65.278616, 29.821769)"><g><path d="M 5.796875 0.28125 C 4.835938 0.28125 4.007812 0.109375 3.3125 -0.234375 C 2.613281 -0.585938 2.070312 -1.101562 1.6875 -1.78125 C 1.3125 -2.457031 1.125 -3.273438 1.125 -4.234375 C 1.125 -5.109375 1.3125 -5.84375 1.6875 -6.4375 C 2.070312 -7.039062 2.660156 -7.53125 3.453125 -7.90625 C 4.242188 -8.289062 5.273438 -8.585938 6.546875 -8.796875 C 7.429688 -8.941406 8.101562 -9.097656 8.5625 -9.265625 C 9.03125 -9.441406 9.34375 -9.632812 9.5 -9.84375 C 9.664062 -10.0625 9.75 -10.335938 9.75 -10.671875 C 9.75 -11.148438 9.582031 -11.515625 9.25 -11.765625 C 8.914062 -12.015625 8.363281 -12.140625 7.59375 -12.140625 C 6.769531 -12.140625 5.984375 -11.953125 5.234375 -11.578125 C 4.492188 -11.210938 3.847656 -10.726562 3.296875 -10.125 L 3.03125 -10.125 L 1.46875 -12.484375 C 2.21875 -13.328125 3.132812 -13.976562 4.21875 -14.4375 C 5.3125 -14.90625 6.5 -15.140625 7.78125 -15.140625 C 9.75 -15.140625 11.171875 -14.722656 12.046875 -13.890625 C 12.929688 -13.054688 13.375 -11.867188 13.375 -10.328125 L 13.375 -3.875 C 13.375 -3.21875 13.664062 -2.890625 14.25 -2.890625 C 14.476562 -2.890625 14.703125 -2.925781 14.921875 -3 L 15.109375 -2.953125 L 15.375 -0.34375 C 15.164062 -0.207031 14.875 -0.0976562 14.5 -0.015625 C 14.132812 0.0664062 13.734375 0.109375 13.296875 0.109375 C 12.410156 0.109375 11.71875 -0.0625 11.21875 -0.40625 C 10.71875 -0.75 10.359375 -1.28125 10.140625 -2 L 9.859375 -2.03125 C 9.128906 -0.488281 7.773438 0.28125 5.796875 0.28125 Z M 6.984375 -2.5 C 7.835938 -2.5 8.523438 -2.789062 9.046875 -3.375 C 9.566406 -3.957031 9.828125 -4.765625 9.828125 -5.796875 L 9.828125 -7.296875 L 9.5625 -7.359375 C 9.34375 -7.179688 9.050781 -7.03125 8.6875 -6.90625 C 8.320312 -6.78125 7.796875 -6.660156 7.109375 -6.546875 C 6.304688 -6.410156 5.726562 -6.175781 5.375 -5.84375 C 5.019531 -5.519531 4.84375 -5.054688 4.84375 -4.453125 C 4.84375 -3.816406 5.03125 -3.332031 5.40625 -3 C 5.78125 -2.664062 6.304688 -2.5 6.984375 -2.5 Z M 9.15625 -16.34375 L 6.640625 -16.34375 L 3.046875 -20.546875 L 3.046875 -20.828125 L 7.234375 -20.828125 L 9.15625 -16.625 Z M 9.15625 -16.34375 "/></g></g><g transform="translate(80.947509, 29.821769)"><g/></g><g transform="translate(87.454882, 29.821769)"><g><path d="M 8.234375 0.28125 C 6.367188 0.28125 4.898438 -0.09375 3.828125 -0.84375 C 2.765625 -1.59375 2.054688 -2.640625 1.703125 -3.984375 L 4.65625 -5.328125 L 4.96875 -5.25 C 5.476562 -3.75 6.554688 -3 8.203125 -3 C 9.484375 -3 10.457031 -3.53125 11.125 -4.59375 C 11.800781 -5.664062 12.140625 -7.265625 12.140625 -9.390625 L 11.875 -9.484375 C 11.425781 -8.628906 10.835938 -7.984375 10.109375 -7.546875 C 9.390625 -7.109375 8.453125 -6.890625 7.296875 -6.890625 C 6.117188 -6.890625 5.082031 -7.148438 4.1875 -7.671875 C 3.300781 -8.191406 2.609375 -8.929688 2.109375 -9.890625 C 1.617188 -10.859375 1.375 -11.992188 1.375 -13.296875 C 1.375 -14.648438 1.660156 -15.828125 2.234375 -16.828125 C 2.804688 -17.835938 3.625 -18.613281 4.6875 -19.15625 C 5.75 -19.707031 6.984375 -19.984375 8.390625 -19.984375 C 10.828125 -19.984375 12.726562 -19.210938 14.09375 -17.671875 C 15.46875 -16.128906 16.15625 -13.644531 16.15625 -10.21875 C 16.15625 -7.875 15.835938 -5.914062 15.203125 -4.34375 C 14.566406 -2.78125 13.660156 -1.617188 12.484375 -0.859375 C 11.304688 -0.0976562 9.890625 0.28125 8.234375 0.28125 Z M 8.5 -10.078125 C 9.507812 -10.078125 10.304688 -10.375 10.890625 -10.96875 C 11.484375 -11.5625 11.78125 -12.359375 11.78125 -13.359375 C 11.78125 -14.378906 11.488281 -15.1875 10.90625 -15.78125 C 10.320312 -16.375 9.519531 -16.671875 8.5 -16.671875 C 7.5 -16.671875 6.710938 -16.378906 6.140625 -15.796875 C 5.578125 -15.222656 5.296875 -14.410156 5.296875 -13.359375 C 5.296875 -12.316406 5.578125 -11.507812 6.140625 -10.9375 C 6.710938 -10.363281 7.5 -10.078125 8.5 -10.078125 Z M 8.5 -10.078125 "/></g></g><g transform="translate(105.265953, 29.821769)"><g><path d="M 8.234375 0.28125 C 6.367188 0.28125 4.898438 -0.09375 3.828125 -0.84375 C 2.765625 -1.59375 2.054688 -2.640625 1.703125 -3.984375 L 4.65625 -5.328125 L 4.96875 -5.25 C 5.476562 -3.75 6.554688 -3 8.203125 -3 C 9.484375 -3 10.457031 -3.53125 11.125 -4.59375 C 11.800781 -5.664062 12.140625 -7.265625 12.140625 -9.390625 L 11.875 -9.484375 C 11.425781 -8.628906 10.835938 -7.984375 10.109375 -7.546875 C 9.390625 -7.109375 8.453125 -6.890625 7.296875 -6.890625 C 6.117188 -6.890625 5.082031 -7.148438 4.1875 -7.671875 C 3.300781 -8.191406 2.609375 -8.929688 2.109375 -9.890625 C 1.617188 -10.859375 1.375 -11.992188 1.375 -13.296875 C 1.375 -14.648438 1.660156 -15.828125 2.234375 -16.828125 C 2.804688 -17.835938 3.625 -18.613281 4.6875 -19.15625 C 5.75 -19.707031 6.984375 -19.984375 8.390625 -19.984375 C 10.828125 -19.984375 12.726562 -19.210938 14.09375 -17.671875 C 15.46875 -16.128906 16.15625 -13.644531 16.15625 -10.21875 C 16.15625 -7.875 15.835938 -5.914062 15.203125 -4.34375 C 14.566406 -2.78125 13.660156 -1.617188 12.484375 -0.859375 C 11.304688 -0.0976562 9.890625 0.28125 8.234375 0.28125 Z M 8.5 -10.078125 C 9.507812 -10.078125 10.304688 -10.375 10.890625 -10.96875 C 11.484375 -11.5625 11.78125 -12.359375 11.78125 -13.359375 C 11.78125 -14.378906 11.488281 -15.1875 10.90625 -15.78125 C 10.320312 -16.375 9.519531 -16.671875 8.5 -16.671875 C 7.5 -16.671875 6.710938 -16.378906 6.140625 -15.796875 C 5.578125 -15.222656 5.296875 -14.410156 5.296875 -13.359375 C 5.296875 -12.316406 5.578125 -11.507812 6.140625 -10.9375 C 6.710938 -10.363281 7.5 -10.078125 8.5 -10.078125 Z M 8.5 -10.078125 "/></g></g><g transform="translate(123.077025, 29.821769)"><g/></g><g transform="translate(129.584398, 29.821769)"><g><path d="M 8.234375 0.28125 C 6.367188 0.28125 4.898438 -0.09375 3.828125 -0.84375 C 2.765625 -1.59375 2.054688 -2.640625 1.703125 -3.984375 L 4.65625 -5.328125 L 4.96875 -5.25 C 5.476562 -3.75 6.554688 -3 8.203125 -3 C 9.484375 -3 10.457031 -3.53125 11.125 -4.59375 C 11.800781 -5.664062 12.140625 -7.265625 12.140625 -9.390625 L 11.875 -9.484375 C 11.425781 -8.628906 10.835938 -7.984375 10.109375 -7.546875 C 9.390625 -7.109375 8.453125 -6.890625 7.296875 -6.890625 C 6.117188 -6.890625 5.082031 -7.148438 4.1875 -7.671875 C 3.300781 -8.191406 2.609375 -8.929688 2.109375 -9.890625 C 1.617188 -10.859375 1.375 -11.992188 1.375 -13.296875 C 1.375 -14.648438 1.660156 -15.828125 2.234375 -16.828125 C 2.804688 -17.835938 3.625 -18.613281 4.6875 -19.15625 C 5.75 -19.707031 6.984375 -19.984375 8.390625 -19.984375 C 10.828125 -19.984375 12.726562 -19.210938 14.09375 -17.671875 C 15.46875 -16.128906 16.15625 -13.644531 16.15625 -10.21875 C 16.15625 -7.875 15.835938 -5.914062 15.203125 -4.34375 C 14.566406 -2.78125 13.660156 -1.617188 12.484375 -0.859375 C 11.304688 -0.0976562 9.890625 0.28125 8.234375 0.28125 Z M 8.5 -10.078125 C 9.507812 -10.078125 10.304688 -10.375 10.890625 -10.96875 C 11.484375 -11.5625 11.78125 -12.359375 11.78125 -13.359375 C 11.78125 -14.378906 11.488281 -15.1875 10.90625 -15.78125 C 10.320312 -16.375 9.519531 -16.671875 8.5 -16.671875 C 7.5 -16.671875 6.710938 -16.378906 6.140625 -15.796875 C 5.578125 -15.222656 5.296875 -14.410156 5.296875 -13.359375 C 5.296875 -12.316406 5.578125 -11.507812 6.140625 -10.9375 C 6.710938 -10.363281 7.5 -10.078125 8.5 -10.078125 Z M 8.5 -10.078125 "/></g></g><g transform="translate(147.39547, 29.821769)"><g><path d="M 8.234375 0.28125 C 6.367188 0.28125 4.898438 -0.09375 3.828125 -0.84375 C 2.765625 -1.59375 2.054688 -2.640625 1.703125 -3.984375 L 4.65625 -5.328125 L 4.96875 -5.25 C 5.476562 -3.75 6.554688 -3 8.203125 -3 C 9.484375 -3 10.457031 -3.53125 11.125 -4.59375 C 11.800781 -5.664062 12.140625 -7.265625 12.140625 -9.390625 L 11.875 -9.484375 C 11.425781 -8.628906 10.835938 -7.984375 10.109375 -7.546875 C 9.390625 -7.109375 8.453125 -6.890625 7.296875 -6.890625 C 6.117188 -6.890625 5.082031 -7.148438 4.1875 -7.671875 C 3.300781 -8.191406 2.609375 -8.929688 2.109375 -9.890625 C 1.617188 -10.859375 1.375 -11.992188 1.375 -13.296875 C 1.375 -14.648438 1.660156 -15.828125 2.234375 -16.828125 C 2.804688 -17.835938 3.625 -18.613281 4.6875 -19.15625 C 5.75 -19.707031 6.984375 -19.984375 8.390625 -19.984375 C 10.828125 -19.984375 12.726562 -19.210938 14.09375 -17.671875 C 15.46875 -16.128906 16.15625 -13.644531 16.15625 -10.21875 C 16.15625 -7.875 15.835938 -5.914062 15.203125 -4.34375 C 14.566406 -2.78125 13.660156 -1.617188 12.484375 -0.859375 C 11.304688 -0.0976562 9.890625 0.28125 8.234375 0.28125 Z M 8.5 -10.078125 C 9.507812 -10.078125 10.304688 -10.375 10.890625 -10.96875 C 11.484375 -11.5625 11.78125 -12.359375 11.78125 -13.359375 C 11.78125 -14.378906 11.488281 -15.1875 10.90625 -15.78125 C 10.320312 -16.375 9.519531 -16.671875 8.5 -16.671875 C 7.5 -16.671875 6.710938 -16.378906 6.140625 -15.796875 C 5.578125 -15.222656 5.296875 -14.410156 5.296875 -13.359375 C 5.296875 -12.316406 5.578125 -11.507812 6.140625 -10.9375 C 6.710938 -10.363281 7.5 -10.078125 8.5 -10.078125 Z M 8.5 -10.078125 "/></g></g><g transform="translate(165.206541, 29.821769)"><g><path d="M 8.234375 0.28125 C 6.367188 0.28125 4.898438 -0.09375 3.828125 -0.84375 C 2.765625 -1.59375 2.054688 -2.640625 1.703125 -3.984375 L 4.65625 -5.328125 L 4.96875 -5.25 C 5.476562 -3.75 6.554688 -3 8.203125 -3 C 9.484375 -3 10.457031 -3.53125 11.125 -4.59375 C 11.800781 -5.664062 12.140625 -7.265625 12.140625 -9.390625 L 11.875 -9.484375 C 11.425781 -8.628906 10.835938 -7.984375 10.109375 -7.546875 C 9.390625 -7.109375 8.453125 -6.890625 7.296875 -6.890625 C 6.117188 -6.890625 5.082031 -7.148438 4.1875 -7.671875 C 3.300781 -8.191406 2.609375 -8.929688 2.109375 -9.890625 C 1.617188 -10.859375 1.375 -11.992188 1.375 -13.296875 C 1.375 -14.648438 1.660156 -15.828125 2.234375 -16.828125 C 2.804688 -17.835938 3.625 -18.613281 4.6875 -19.15625 C 5.75 -19.707031 6.984375 -19.984375 8.390625 -19.984375 C 10.828125 -19.984375 12.726562 -19.210938 14.09375 -17.671875 C 15.46875 -16.128906 16.15625 -13.644531 16.15625 -10.21875 C 16.15625 -7.875 15.835938 -5.914062 15.203125 -4.34375 C 14.566406 -2.78125 13.660156 -1.617188 12.484375 -0.859375 C 11.304688 -0.0976562 9.890625 0.28125 8.234375 0.28125 Z M 8.5 -10.078125 C 9.507812 -10.078125 10.304688 -10.375 10.890625 -10.96875 C 11.484375 -11.5625 11.78125 -12.359375 11.78125 -13.359375 C 11.78125 -14.378906 11.488281 -15.1875 10.90625 -15.78125 C 10.320312 -16.375 9.519531 -16.671875 8.5 -16.671875 C 7.5 -16.671875 6.710938 -16.378906 6.140625 -15.796875 C 5.578125 -15.222656 5.296875 -14.410156 5.296875 -13.359375 C 5.296875 -12.316406 5.578125 -11.507812 6.140625 -10.9375 C 6.710938 -10.363281 7.5 -10.078125 8.5 -10.078125 Z M 8.5 -10.078125 "/></g></g></g></g></g></g><g mask="url(#76e84b6124)"><g transform="matrix(1, 0, 0, 1, 33, 444)"><g clip-path="url(#ce8ef39b89)"><g fill="#2e2e2e" fill-opacity="1"><g transform="translate(0.529471, 30.29903)"><g><path d="M 9.640625 -19.703125 C 12.835938 -19.703125 15.28125 -18.875 16.96875 -17.21875 C 18.65625 -15.5625 19.5 -13.101562 19.5 -9.84375 C 19.5 -6.59375 18.65625 -4.140625 16.96875 -2.484375 C 15.28125 -0.828125 12.835938 0 9.640625 0 L 2.5625 0 L 2.5625 -19.703125 Z M 9.421875 -3.28125 C 11.453125 -3.28125 12.96875 -3.796875 13.96875 -4.828125 C 14.976562 -5.867188 15.484375 -7.539062 15.484375 -9.84375 C 15.484375 -12.15625 14.976562 -13.828125 13.96875 -14.859375 C 12.96875 -15.898438 11.453125 -16.421875 9.421875 -16.421875 L 6.453125 -16.421875 L 6.453125 -3.28125 Z M 9.421875 -3.28125 "/></g></g><g transform="translate(21.587493, 30.29903)"><g><path d="M 14.6875 -6.59375 L 5.140625 -6.59375 C 5.242188 -5.289062 5.609375 -4.347656 6.234375 -3.765625 C 6.867188 -3.179688 7.726562 -2.890625 8.8125 -2.890625 C 9.664062 -2.890625 10.359375 -3.046875 10.890625 -3.359375 C 11.421875 -3.679688 11.847656 -4.164062 12.171875 -4.8125 L 12.453125 -4.8125 L 14.921875 -3.21875 C 14.441406 -2.175781 13.710938 -1.332031 12.734375 -0.6875 C 11.753906 -0.0390625 10.445312 0.28125 8.8125 0.28125 C 7.269531 0.28125 5.941406 -0.0078125 4.828125 -0.59375 C 3.710938 -1.175781 2.847656 -2.046875 2.234375 -3.203125 C 1.628906 -4.359375 1.328125 -5.765625 1.328125 -7.421875 C 1.328125 -9.109375 1.644531 -10.53125 2.28125 -11.6875 C 2.925781 -12.851562 3.789062 -13.71875 4.875 -14.28125 C 5.957031 -14.851562 7.179688 -15.140625 8.546875 -15.140625 C 10.640625 -15.140625 12.242188 -14.582031 13.359375 -13.46875 C 14.484375 -12.351562 15.046875 -10.71875 15.046875 -8.5625 C 15.046875 -7.78125 15.019531 -7.175781 14.96875 -6.75 Z M 11.484375 -9 C 11.441406 -10.132812 11.175781 -10.957031 10.6875 -11.46875 C 10.195312 -11.988281 9.484375 -12.25 8.546875 -12.25 C 6.660156 -12.25 5.550781 -11.164062 5.21875 -9 Z M 11.484375 -9 "/></g></g><g transform="translate(37.741407, 30.29903)"><g/></g><g transform="translate(44.248781, 30.29903)"><g><path d="M 1.03125 0 L 1.03125 -3.21875 L 5.796875 -3.21875 L 5.796875 -15.484375 L 5.484375 -15.5625 C 4.804688 -15.238281 4.140625 -14.984375 3.484375 -14.796875 C 2.835938 -14.609375 2.097656 -14.457031 1.265625 -14.34375 L 1.265625 -17.671875 C 3.453125 -18.128906 5.21875 -18.804688 6.5625 -19.703125 L 9.640625 -19.703125 L 9.640625 -3.21875 L 13.890625 -3.21875 L 13.890625 0 Z M 1.03125 0 "/></g></g><g transform="translate(58.785956, 30.29903)"><g><path d="M 9.625 0.28125 C 8.007812 0.28125 6.609375 -0.0703125 5.421875 -0.78125 C 4.234375 -1.5 3.304688 -2.613281 2.640625 -4.125 C 1.984375 -5.632812 1.65625 -7.539062 1.65625 -9.84375 C 1.65625 -12.15625 1.984375 -14.066406 2.640625 -15.578125 C 3.304688 -17.085938 4.234375 -18.195312 5.421875 -18.90625 C 6.609375 -19.625 8.007812 -19.984375 9.625 -19.984375 C 11.238281 -19.984375 12.640625 -19.625 13.828125 -18.90625 C 15.015625 -18.195312 15.9375 -17.085938 16.59375 -15.578125 C 17.257812 -14.066406 17.59375 -12.15625 17.59375 -9.84375 C 17.59375 -7.539062 17.257812 -5.632812 16.59375 -4.125 C 15.9375 -2.613281 15.015625 -1.5 13.828125 -0.78125 C 12.640625 -0.0703125 11.238281 0.28125 9.625 0.28125 Z M 9.625 -3.015625 C 10.5 -3.015625 11.234375 -3.226562 11.828125 -3.65625 C 12.421875 -4.082031 12.875 -4.796875 13.1875 -5.796875 C 13.507812 -6.804688 13.671875 -8.15625 13.671875 -9.84375 C 13.671875 -11.53125 13.507812 -12.878906 13.1875 -13.890625 C 12.875 -14.898438 12.421875 -15.617188 11.828125 -16.046875 C 11.234375 -16.472656 10.5 -16.6875 9.625 -16.6875 C 8.738281 -16.6875 8 -16.472656 7.40625 -16.046875 C 6.8125 -15.617188 6.351562 -14.898438 6.03125 -13.890625 C 5.71875 -12.878906 5.5625 -11.53125 5.5625 -9.84375 C 5.5625 -8.15625 5.71875 -6.804688 6.03125 -5.796875 C 6.351562 -4.796875 6.8125 -4.082031 7.40625 -3.65625 C 8 -3.226562 8.738281 -3.015625 9.625 -3.015625 Z M 9.625 -3.015625 "/></g></g><g transform="translate(78.03862, 30.29903)"><g><path d="M 9.625 0.28125 C 8.007812 0.28125 6.609375 -0.0703125 5.421875 -0.78125 C 4.234375 -1.5 3.304688 -2.613281 2.640625 -4.125 C 1.984375 -5.632812 1.65625 -7.539062 1.65625 -9.84375 C 1.65625 -12.15625 1.984375 -14.066406 2.640625 -15.578125 C 3.304688 -17.085938 4.234375 -18.195312 5.421875 -18.90625 C 6.609375 -19.625 8.007812 -19.984375 9.625 -19.984375 C 11.238281 -19.984375 12.640625 -19.625 13.828125 -18.90625 C 15.015625 -18.195312 15.9375 -17.085938 16.59375 -15.578125 C 17.257812 -14.066406 17.59375 -12.15625 17.59375 -9.84375 C 17.59375 -7.539062 17.257812 -5.632812 16.59375 -4.125 C 15.9375 -2.613281 15.015625 -1.5 13.828125 -0.78125 C 12.640625 -0.0703125 11.238281 0.28125 9.625 0.28125 Z M 9.625 -3.015625 C 10.5 -3.015625 11.234375 -3.226562 11.828125 -3.65625 C 12.421875 -4.082031 12.875 -4.796875 13.1875 -5.796875 C 13.507812 -6.804688 13.671875 -8.15625 13.671875 -9.84375 C 13.671875 -11.53125 13.507812 -12.878906 13.1875 -13.890625 C 12.875 -14.898438 12.421875 -15.617188 11.828125 -16.046875 C 11.234375 -16.472656 10.5 -16.6875 9.625 -16.6875 C 8.738281 -16.6875 8 -16.472656 7.40625 -16.046875 C 6.8125 -15.617188 6.351562 -14.898438 6.03125 -13.890625 C 5.71875 -12.878906 5.5625 -11.53125 5.5625 -9.84375 C 5.5625 -8.15625 5.71875 -6.804688 6.03125 -5.796875 C 6.351562 -4.796875 6.8125 -4.082031 7.40625 -3.65625 C 8 -3.226562 8.738281 -3.015625 9.625 -3.015625 Z M 9.625 -3.015625 "/></g></g><g transform="translate(97.291284, 30.29903)"><g/></g><g transform="translate(103.798657, 30.29903)"><g><path d="M 9.625 0.28125 C 8.007812 0.28125 6.609375 -0.0703125 5.421875 -0.78125 C 4.234375 -1.5 3.304688 -2.613281 2.640625 -4.125 C 1.984375 -5.632812 1.65625 -7.539062 1.65625 -9.84375 C 1.65625 -12.15625 1.984375 -14.066406 2.640625 -15.578125 C 3.304688 -17.085938 4.234375 -18.195312 5.421875 -18.90625 C 6.609375 -19.625 8.007812 -19.984375 9.625 -19.984375 C 11.238281 -19.984375 12.640625 -19.625 13.828125 -18.90625 C 15.015625 -18.195312 15.9375 -17.085938 16.59375 -15.578125 C 17.257812 -14.066406 17.59375 -12.15625 17.59375 -9.84375 C 17.59375 -7.539062 17.257812 -5.632812 16.59375 -4.125 C 15.9375 -2.613281 15.015625 -1.5 13.828125 -0.78125 C 12.640625 -0.0703125 11.238281 0.28125 9.625 0.28125 Z M 9.625 -3.015625 C 10.5 -3.015625 11.234375 -3.226562 11.828125 -3.65625 C 12.421875 -4.082031 12.875 -4.796875 13.1875 -5.796875 C 13.507812 -6.804688 13.671875 -8.15625 13.671875 -9.84375 C 13.671875 -11.53125 13.507812 -12.878906 13.1875 -13.890625 C 12.875 -14.898438 12.421875 -15.617188 11.828125 -16.046875 C 11.234375 -16.472656 10.5 -16.6875 9.625 -16.6875 C 8.738281 -16.6875 8 -16.472656 7.40625 -16.046875 C 6.8125 -15.617188 6.351562 -14.898438 6.03125 -13.890625 C 5.71875 -12.878906 5.5625 -11.53125 5.5625 -9.84375 C 5.5625 -8.15625 5.71875 -6.804688 6.03125 -5.796875 C 6.351562 -4.796875 6.8125 -4.082031 7.40625 -3.65625 C 8 -3.226562 8.738281 -3.015625 9.625 -3.015625 Z M 9.625 -3.015625 "/></g></g><g transform="translate(123.051321, 30.29903)"><g><path d="M 9.625 0.28125 C 8.007812 0.28125 6.609375 -0.0703125 5.421875 -0.78125 C 4.234375 -1.5 3.304688 -2.613281 2.640625 -4.125 C 1.984375 -5.632812 1.65625 -7.539062 1.65625 -9.84375 C 1.65625 -12.15625 1.984375 -14.066406 2.640625 -15.578125 C 3.304688 -17.085938 4.234375 -18.195312 5.421875 -18.90625 C 6.609375 -19.625 8.007812 -19.984375 9.625 -19.984375 C 11.238281 -19.984375 12.640625 -19.625 13.828125 -18.90625 C 15.015625 -18.195312 15.9375 -17.085938 16.59375 -15.578125 C 17.257812 -14.066406 17.59375 -12.15625 17.59375 -9.84375 C 17.59375 -7.539062 17.257812 -5.632812 16.59375 -4.125 C 15.9375 -2.613281 15.015625 -1.5 13.828125 -0.78125 C 12.640625 -0.0703125 11.238281 0.28125 9.625 0.28125 Z M 9.625 -3.015625 C 10.5 -3.015625 11.234375 -3.226562 11.828125 -3.65625 C 12.421875 -4.082031 12.875 -4.796875 13.1875 -5.796875 C 13.507812 -6.804688 13.671875 -8.15625 13.671875 -9.84375 C 13.671875 -11.53125 13.507812 -12.878906 13.1875 -13.890625 C 12.875 -14.898438 12.421875 -15.617188 11.828125 -16.046875 C 11.234375 -16.472656 10.5 -16.6875 9.625 -16.6875 C 8.738281 -16.6875 8 -16.472656 7.40625 -16.046875 C 6.8125 -15.617188 6.351562 -14.898438 6.03125 -13.890625 C 5.71875 -12.878906 5.5625 -11.53125 5.5625 -9.84375 C 5.5625 -8.15625 5.71875 -6.804688 6.03125 -5.796875 C 6.351562 -4.796875 6.8125 -4.082031 7.40625 -3.65625 C 8 -3.226562 8.738281 -3.015625 9.625 -3.015625 Z M 9.625 -3.015625 "/></g></g><g transform="translate(142.303984, 30.29903)"><g><path d="M 9.625 0.28125 C 8.007812 0.28125 6.609375 -0.0703125 5.421875 -0.78125 C 4.234375 -1.5 3.304688 -2.613281 2.640625 -4.125 C 1.984375 -5.632812 1.65625 -7.539062 1.65625 -9.84375 C 1.65625 -12.15625 1.984375 -14.066406 2.640625 -15.578125 C 3.304688 -17.085938 4.234375 -18.195312 5.421875 -18.90625 C 6.609375 -19.625 8.007812 -19.984375 9.625 -19.984375 C 11.238281 -19.984375 12.640625 -19.625 13.828125 -18.90625 C 15.015625 -18.195312 15.9375 -17.085938 16.59375 -15.578125 C 17.257812 -14.066406 17.59375 -12.15625 17.59375 -9.84375 C 17.59375 -7.539062 17.257812 -5.632812 16.59375 -4.125 C 15.9375 -2.613281 15.015625 -1.5 13.828125 -0.78125 C 12.640625 -0.0703125 11.238281 0.28125 9.625 0.28125 Z M 9.625 -3.015625 C 10.5 -3.015625 11.234375 -3.226562 11.828125 -3.65625 C 12.421875 -4.082031 12.875 -4.796875 13.1875 -5.796875 C 13.507812 -6.804688 13.671875 -8.15625 13.671875 -9.84375 C 13.671875 -11.53125 13.507812 -12.878906 13.1875 -13.890625 C 12.875 -14.898438 12.421875 -15.617188 11.828125 -16.046875 C 11.234375 -16.472656 10.5 -16.6875 9.625 -16.6875 C 8.738281 -16.6875 8 -16.472656 7.40625 -16.046875 C 6.8125 -15.617188 6.351562 -14.898438 6.03125 -13.890625 C 5.71875 -12.878906 5.5625 -11.53125 5.5625 -9.84375 C 5.5625 -8.15625 5.71875 -6.804688 6.03125 -5.796875 C 6.351562 -4.796875 6.8125 -4.082031 7.40625 -3.65625 C 8 -3.226562 8.738281 -3.015625 9.625 -3.015625 Z M 9.625 -3.015625 "/></g></g><g transform="translate(161.556648, 30.29903)"><g/></g><g transform="translate(168.064021, 30.29903)"><g><path d="M 5.796875 0.28125 C 4.835938 0.28125 4.007812 0.109375 3.3125 -0.234375 C 2.613281 -0.585938 2.070312 -1.101562 1.6875 -1.78125 C 1.3125 -2.457031 1.125 -3.273438 1.125 -4.234375 C 1.125 -5.109375 1.3125 -5.84375 1.6875 -6.4375 C 2.070312 -7.039062 2.660156 -7.53125 3.453125 -7.90625 C 4.242188 -8.289062 5.273438 -8.585938 6.546875 -8.796875 C 7.429688 -8.941406 8.101562 -9.097656 8.5625 -9.265625 C 9.03125 -9.441406 9.34375 -9.632812 9.5 -9.84375 C 9.664062 -10.0625 9.75 -10.335938 9.75 -10.671875 C 9.75 -11.148438 9.582031 -11.515625 9.25 -11.765625 C 8.914062 -12.015625 8.363281 -12.140625 7.59375 -12.140625 C 6.769531 -12.140625 5.984375 -11.953125 5.234375 -11.578125 C 4.492188 -11.210938 3.847656 -10.726562 3.296875 -10.125 L 3.03125 -10.125 L 1.46875 -12.484375 C 2.21875 -13.328125 3.132812 -13.976562 4.21875 -14.4375 C 5.3125 -14.90625 6.5 -15.140625 7.78125 -15.140625 C 9.75 -15.140625 11.171875 -14.722656 12.046875 -13.890625 C 12.929688 -13.054688 13.375 -11.867188 13.375 -10.328125 L 13.375 -3.875 C 13.375 -3.21875 13.664062 -2.890625 14.25 -2.890625 C 14.476562 -2.890625 14.703125 -2.925781 14.921875 -3 L 15.109375 -2.953125 L 15.375 -0.34375 C 15.164062 -0.207031 14.875 -0.0976562 14.5 -0.015625 C 14.132812 0.0664062 13.734375 0.109375 13.296875 0.109375 C 12.410156 0.109375 11.71875 -0.0625 11.21875 -0.40625 C 10.71875 -0.75 10.359375 -1.28125 10.140625 -2 L 9.859375 -2.03125 C 9.128906 -0.488281 7.773438 0.28125 5.796875 0.28125 Z M 6.984375 -2.5 C 7.835938 -2.5 8.523438 -2.789062 9.046875 -3.375 C 9.566406 -3.957031 9.828125 -4.765625 9.828125 -5.796875 L 9.828125 -7.296875 L 9.5625 -7.359375 C 9.34375 -7.179688 9.050781 -7.03125 8.6875 -6.90625 C 8.320312 -6.78125 7.796875 -6.660156 7.109375 -6.546875 C 6.304688 -6.410156 5.726562 -6.175781 5.375 -5.84375 C 5.019531 -5.519531 4.84375 -5.054688 4.84375 -4.453125 C 4.84375 -3.816406 5.03125 -3.332031 5.40625 -3 C 5.78125 -2.664062 6.304688 -2.5 6.984375 -2.5 Z M 9.15625 -16.34375 L 6.640625 -16.34375 L 3.046875 -20.546875 L 3.046875 -20.828125 L 7.234375 -20.828125 L 9.15625 -16.625 Z M 9.15625 -16.34375 "/></g></g><g transform="translate(183.732914, 30.29903)"><g/></g><g transform="translate(190.240287, 30.29903)"><g><path d="M 1.03125 0 L 1.03125 -3.21875 L 5.796875 -3.21875 L 5.796875 -15.484375 L 5.484375 -15.5625 C 4.804688 -15.238281 4.140625 -14.984375 3.484375 -14.796875 C 2.835938 -14.609375 2.097656 -14.457031 1.265625 -14.34375 L 1.265625 -17.671875 C 3.453125 -18.128906 5.21875 -18.804688 6.5625 -19.703125 L 9.640625 -19.703125 L 9.640625 -3.21875 L 13.890625 -3.21875 L 13.890625 0 Z M 1.03125 0 "/></g></g><g transform="translate(204.777463, 30.29903)"><g/></g><g transform="translate(211.284836, 30.29903)"><g><path d="M 8.203125 0.28125 C 6.234375 0.28125 4.671875 -0.128906 3.515625 -0.953125 C 2.367188 -1.785156 1.617188 -2.941406 1.265625 -4.421875 L 4.21875 -5.71875 L 4.53125 -5.671875 C 4.8125 -4.796875 5.238281 -4.140625 5.8125 -3.703125 C 6.382812 -3.265625 7.171875 -3.046875 8.171875 -3.046875 C 9.191406 -3.046875 9.976562 -3.335938 10.53125 -3.921875 C 11.09375 -4.503906 11.375 -5.375 11.375 -6.53125 C 11.375 -7.6875 11.097656 -8.554688 10.546875 -9.140625 C 9.992188 -9.734375 9.238281 -10.03125 8.28125 -10.03125 C 7.550781 -10.03125 6.941406 -9.875 6.453125 -9.5625 C 5.960938 -9.25 5.550781 -8.785156 5.21875 -8.171875 L 2 -8.390625 L 2.390625 -19.703125 L 14.125 -19.703125 L 14.125 -16.421875 L 5.671875 -16.421875 L 5.484375 -11.40625 L 5.765625 -11.34375 C 6.222656 -11.945312 6.769531 -12.398438 7.40625 -12.703125 C 8.039062 -13.015625 8.8125 -13.171875 9.71875 -13.171875 C 10.84375 -13.171875 11.820312 -12.921875 12.65625 -12.421875 C 13.5 -11.929688 14.148438 -11.191406 14.609375 -10.203125 C 15.066406 -9.222656 15.296875 -8.023438 15.296875 -6.609375 C 15.296875 -5.160156 15.019531 -3.921875 14.46875 -2.890625 C 13.914062 -1.859375 13.109375 -1.070312 12.046875 -0.53125 C 10.984375 0.0078125 9.703125 0.28125 8.203125 0.28125 Z M 8.203125 0.28125 "/></g></g><g transform="translate(227.883354, 30.29903)"><g><path d="M 9.625 0.28125 C 8.007812 0.28125 6.609375 -0.0703125 5.421875 -0.78125 C 4.234375 -1.5 3.304688 -2.613281 2.640625 -4.125 C 1.984375 -5.632812 1.65625 -7.539062 1.65625 -9.84375 C 1.65625 -12.15625 1.984375 -14.066406 2.640625 -15.578125 C 3.304688 -17.085938 4.234375 -18.195312 5.421875 -18.90625 C 6.609375 -19.625 8.007812 -19.984375 9.625 -19.984375 C 11.238281 -19.984375 12.640625 -19.625 13.828125 -18.90625 C 15.015625 -18.195312 15.9375 -17.085938 16.59375 -15.578125 C 17.257812 -14.066406 17.59375 -12.15625 17.59375 -9.84375 C 17.59375 -7.539062 17.257812 -5.632812 16.59375 -4.125 C 15.9375 -2.613281 15.015625 -1.5 13.828125 -0.78125 C 12.640625 -0.0703125 11.238281 0.28125 9.625 0.28125 Z M 9.625 -3.015625 C 10.5 -3.015625 11.234375 -3.226562 11.828125 -3.65625 C 12.421875 -4.082031 12.875 -4.796875 13.1875 -5.796875 C 13.507812 -6.804688 13.671875 -8.15625 13.671875 -9.84375 C 13.671875 -11.53125 13.507812 -12.878906 13.1875 -13.890625 C 12.875 -14.898438 12.421875 -15.617188 11.828125 -16.046875 C 11.234375 -16.472656 10.5 -16.6875 9.625 -16.6875 C 8.738281 -16.6875 8 -16.472656 7.40625 -16.046875 C 6.8125 -15.617188 6.351562 -14.898438 6.03125 -13.890625 C 5.71875 -12.878906 5.5625 -11.53125 5.5625 -9.84375 C 5.5625 -8.15625 5.71875 -6.804688 6.03125 -5.796875 C 6.351562 -4.796875 6.8125 -4.082031 7.40625 -3.65625 C 8 -3.226562 8.738281 -3.015625 9.625 -3.015625 Z M 9.625 -3.015625 "/></g></g><g transform="translate(247.136018, 30.29903)"><g><path d="M 9.625 0.28125 C 8.007812 0.28125 6.609375 -0.0703125 5.421875 -0.78125 C 4.234375 -1.5 3.304688 -2.613281 2.640625 -4.125 C 1.984375 -5.632812 1.65625 -7.539062 1.65625 -9.84375 C 1.65625 -12.15625 1.984375 -14.066406 2.640625 -15.578125 C 3.304688 -17.085938 4.234375 -18.195312 5.421875 -18.90625 C 6.609375 -19.625 8.007812 -19.984375 9.625 -19.984375 C 11.238281 -19.984375 12.640625 -19.625 13.828125 -18.90625 C 15.015625 -18.195312 15.9375 -17.085938 16.59375 -15.578125 C 17.257812 -14.066406 17.59375 -12.15625 17.59375 -9.84375 C 17.59375 -7.539062 17.257812 -5.632812 16.59375 -4.125 C 15.9375 -2.613281 15.015625 -1.5 13.828125 -0.78125 C 12.640625 -0.0703125 11.238281 0.28125 9.625 0.28125 Z M 9.625 -3.015625 C 10.5 -3.015625 11.234375 -3.226562 11.828125 -3.65625 C 12.421875 -4.082031 12.875 -4.796875 13.1875 -5.796875 C 13.507812 -6.804688 13.671875 -8.15625 13.671875 -9.84375 C 13.671875 -11.53125 13.507812 -12.878906 13.1875 -13.890625 C 12.875 -14.898438 12.421875 -15.617188 11.828125 -16.046875 C 11.234375 -16.472656 10.5 -16.6875 9.625 -16.6875 C 8.738281 -16.6875 8 -16.472656 7.40625 -16.046875 C 6.8125 -15.617188 6.351562 -14.898438 6.03125 -13.890625 C 5.71875 -12.878906 5.5625 -11.53125 5.5625 -9.84375 C 5.5625 -8.15625 5.71875 -6.804688 6.03125 -5.796875 C 6.351562 -4.796875 6.8125 -4.082031 7.40625 -3.65625 C 8 -3.226562 8.738281 -3.015625 9.625 -3.015625 Z M 9.625 -3.015625 "/></g></g><g transform="translate(266.388681, 30.29903)"><g/></g><g transform="translate(272.896055, 30.29903)"><g><path d="M 9.625 0.28125 C 8.007812 0.28125 6.609375 -0.0703125 5.421875 -0.78125 C 4.234375 -1.5 3.304688 -2.613281 2.640625 -4.125 C 1.984375 -5.632812 1.65625 -7.539062 1.65625 -9.84375 C 1.65625 -12.15625 1.984375 -14.066406 2.640625 -15.578125 C 3.304688 -17.085938 4.234375 -18.195312 5.421875 -18.90625 C 6.609375 -19.625 8.007812 -19.984375 9.625 -19.984375 C 11.238281 -19.984375 12.640625 -19.625 13.828125 -18.90625 C 15.015625 -18.195312 15.9375 -17.085938 16.59375 -15.578125 C 17.257812 -14.066406 17.59375 -12.15625 17.59375 -9.84375 C 17.59375 -7.539062 17.257812 -5.632812 16.59375 -4.125 C 15.9375 -2.613281 15.015625 -1.5 13.828125 -0.78125 C 12.640625 -0.0703125 11.238281 0.28125 9.625 0.28125 Z M 9.625 -3.015625 C 10.5 -3.015625 11.234375 -3.226562 11.828125 -3.65625 C 12.421875 -4.082031 12.875 -4.796875 13.1875 -5.796875 C 13.507812 -6.804688 13.671875 -8.15625 13.671875 -9.84375 C 13.671875 -11.53125 13.507812 -12.878906 13.1875 -13.890625 C 12.875 -14.898438 12.421875 -15.617188 11.828125 -16.046875 C 11.234375 -16.472656 10.5 -16.6875 9.625 -16.6875 C 8.738281 -16.6875 8 -16.472656 7.40625 -16.046875 C 6.8125 -15.617188 6.351562 -14.898438 6.03125 -13.890625 C 5.71875 -12.878906 5.5625 -11.53125 5.5625 -9.84375 C 5.5625 -8.15625 5.71875 -6.804688 6.03125 -5.796875 C 6.351562 -4.796875 6.8125 -4.082031 7.40625 -3.65625 C 8 -3.226562 8.738281 -3.015625 9.625 -3.015625 Z M 9.625 -3.015625 "/></g></g><g transform="translate(292.148718, 30.29903)"><g><path d="M 9.625 0.28125 C 8.007812 0.28125 6.609375 -0.0703125 5.421875 -0.78125 C 4.234375 -1.5 3.304688 -2.613281 2.640625 -4.125 C 1.984375 -5.632812 1.65625 -7.539062 1.65625 -9.84375 C 1.65625 -12.15625 1.984375 -14.066406 2.640625 -15.578125 C 3.304688 -17.085938 4.234375 -18.195312 5.421875 -18.90625 C 6.609375 -19.625 8.007812 -19.984375 9.625 -19.984375 C 11.238281 -19.984375 12.640625 -19.625 13.828125 -18.90625 C 15.015625 -18.195312 15.9375 -17.085938 16.59375 -15.578125 C 17.257812 -14.066406 17.59375 -12.15625 17.59375 -9.84375 C 17.59375 -7.539062 17.257812 -5.632812 16.59375 -4.125 C 15.9375 -2.613281 15.015625 -1.5 13.828125 -0.78125 C 12.640625 -0.0703125 11.238281 0.28125 9.625 0.28125 Z M 9.625 -3.015625 C 10.5 -3.015625 11.234375 -3.226562 11.828125 -3.65625 C 12.421875 -4.082031 12.875 -4.796875 13.1875 -5.796875 C 13.507812 -6.804688 13.671875 -8.15625 13.671875 -9.84375 C 13.671875 -11.53125 13.507812 -12.878906 13.1875 -13.890625 C 12.875 -14.898438 12.421875 -15.617188 11.828125 -16.046875 C 11.234375 -16.472656 10.5 -16.6875 9.625 -16.6875 C 8.738281 -16.6875 8 -16.472656 7.40625 -16.046875 C 6.8125 -15.617188 6.351562 -14.898438 6.03125 -13.890625 C 5.71875 -12.878906 5.5625 -11.53125 5.5625 -9.84375 C 5.5625 -8.15625 5.71875 -6.804688 6.03125 -5.796875 C 6.351562 -4.796875 6.8125 -4.082031 7.40625 -3.65625 C 8 -3.226562 8.738281 -3.015625 9.625 -3.015625 Z M 9.625 -3.015625 "/></g></g><g transform="translate(311.401382, 30.29903)"><g><path d="M 9.625 0.28125 C 8.007812 0.28125 6.609375 -0.0703125 5.421875 -0.78125 C 4.234375 -1.5 3.304688 -2.613281 2.640625 -4.125 C 1.984375 -5.632812 1.65625 -7.539062 1.65625 -9.84375 C 1.65625 -12.15625 1.984375 -14.066406 2.640625 -15.578125 C 3.304688 -17.085938 4.234375 -18.195312 5.421875 -18.90625 C 6.609375 -19.625 8.007812 -19.984375 9.625 -19.984375 C 11.238281 -19.984375 12.640625 -19.625 13.828125 -18.90625 C 15.015625 -18.195312 15.9375 -17.085938 16.59375 -15.578125 C 17.257812 -14.066406 17.59375 -12.15625 17.59375 -9.84375 C 17.59375 -7.539062 17.257812 -5.632812 16.59375 -4.125 C 15.9375 -2.613281 15.015625 -1.5 13.828125 -0.78125 C 12.640625 -0.0703125 11.238281 0.28125 9.625 0.28125 Z M 9.625 -3.015625 C 10.5 -3.015625 11.234375 -3.226562 11.828125 -3.65625 C 12.421875 -4.082031 12.875 -4.796875 13.1875 -5.796875 C 13.507812 -6.804688 13.671875 -8.15625 13.671875 -9.84375 C 13.671875 -11.53125 13.507812 -12.878906 13.1875 -13.890625 C 12.875 -14.898438 12.421875 -15.617188 11.828125 -16.046875 C 11.234375 -16.472656 10.5 -16.6875 9.625 -16.6875 C 8.738281 -16.6875 8 -16.472656 7.40625 -16.046875 C 6.8125 -15.617188 6.351562 -14.898438 6.03125 -13.890625 C 5.71875 -12.878906 5.5625 -11.53125 5.5625 -9.84375 C 5.5625 -8.15625 5.71875 -6.804688 6.03125 -5.796875 C 6.351562 -4.796875 6.8125 -4.082031 7.40625 -3.65625 C 8 -3.226562 8.738281 -3.015625 9.625 -3.015625 Z M 9.625 -3.015625 "/></g></g></g></g></g></g><g mask="url(#4a1600a725)"><g transform="matrix(1, 0, 0, 1, 679, 350)"><g clip-path="url(#85e7cb67e7)"><g fill="#2e2e2e" fill-opacity="1"><g transform="translate(0.323075, 29.821769)"><g><path d="M 1.03125 0 L 1.03125 -3.21875 L 5.796875 -3.21875 L 5.796875 -15.484375 L 5.484375 -15.5625 C 4.804688 -15.238281 4.140625 -14.984375 3.484375 -14.796875 C 2.835938 -14.609375 2.097656 -14.457031 1.265625 -14.34375 L 1.265625 -17.671875 C 3.453125 -18.128906 5.21875 -18.804688 6.5625 -19.703125 L 9.640625 -19.703125 L 9.640625 -3.21875 L 13.890625 -3.21875 L 13.890625 0 Z M 1.03125 0 "/></g></g><g transform="translate(14.860251, 29.821769)"><g><path d="M 5.640625 -9 C 4.191406 -9 3.050781 -9.453125 2.21875 -10.359375 C 1.394531 -11.265625 0.984375 -12.644531 0.984375 -14.5 C 0.984375 -16.34375 1.394531 -17.71875 2.21875 -18.625 C 3.050781 -19.53125 4.191406 -19.984375 5.640625 -19.984375 C 7.078125 -19.984375 8.207031 -19.53125 9.03125 -18.625 C 9.863281 -17.71875 10.28125 -16.34375 10.28125 -14.5 C 10.28125 -12.644531 9.863281 -11.265625 9.03125 -10.359375 C 8.207031 -9.453125 7.078125 -9 5.640625 -9 Z M 7 0 L 3.71875 0 L 3.671875 -0.28125 L 16.84375 -19.703125 L 20.125 -19.703125 L 20.1875 -19.421875 Z M 5.640625 -11.5625 C 6.191406 -11.5625 6.601562 -11.773438 6.875 -12.203125 C 7.144531 -12.640625 7.28125 -13.40625 7.28125 -14.5 C 7.28125 -15.59375 7.144531 -16.351562 6.875 -16.78125 C 6.601562 -17.21875 6.191406 -17.4375 5.640625 -17.4375 C 5.265625 -17.4375 4.957031 -17.347656 4.71875 -17.171875 C 4.476562 -16.992188 4.289062 -16.6875 4.15625 -16.25 C 4.03125 -15.820312 3.96875 -15.238281 3.96875 -14.5 C 3.96875 -13.738281 4.03125 -13.144531 4.15625 -12.71875 C 4.289062 -12.289062 4.472656 -11.988281 4.703125 -11.8125 C 4.941406 -11.644531 5.253906 -11.5625 5.640625 -11.5625 Z M 18.265625 0.28125 C 16.816406 0.28125 15.675781 -0.164062 14.84375 -1.0625 C 14.019531 -1.96875 13.609375 -3.347656 13.609375 -5.203125 C 13.609375 -7.046875 14.019531 -8.421875 14.84375 -9.328125 C 15.675781 -10.242188 16.816406 -10.703125 18.265625 -10.703125 C 19.703125 -10.703125 20.832031 -10.242188 21.65625 -9.328125 C 22.488281 -8.421875 22.90625 -7.046875 22.90625 -5.203125 C 22.90625 -3.359375 22.488281 -1.984375 21.65625 -1.078125 C 20.832031 -0.171875 19.703125 0.28125 18.265625 0.28125 Z M 18.265625 -2.28125 C 18.640625 -2.28125 18.941406 -2.363281 19.171875 -2.53125 C 19.410156 -2.707031 19.59375 -3.007812 19.71875 -3.4375 C 19.84375 -3.863281 19.90625 -4.453125 19.90625 -5.203125 C 19.90625 -5.953125 19.84375 -6.539062 19.71875 -6.96875 C 19.59375 -7.394531 19.410156 -7.695312 19.171875 -7.875 C 18.941406 -8.050781 18.640625 -8.140625 18.265625 -8.140625 C 17.890625 -8.140625 17.582031 -8.050781 17.34375 -7.875 C 17.101562 -7.695312 16.921875 -7.394531 16.796875 -6.96875 C 16.671875 -6.539062 16.609375 -5.953125 16.609375 -5.203125 C 16.609375 -4.453125 16.671875 -3.863281 16.796875 -3.4375 C 16.921875 -3.007812 17.101562 -2.707031 17.34375 -2.53125 C 17.582031 -2.363281 17.890625 -2.28125 18.265625 -2.28125 Z M 18.265625 -2.28125 "/></g></g></g></g></g></g><g mask="url(#cf5e791f9a)"><g transform="matrix(1, 0, 0, 1, 666, 444)"><g clip-path="url(#0bbdfc6198)"><g fill="#2e2e2e" fill-opacity="1"><g transform="translate(0.171064, 30.29903)"><g><path d="M 9.625 0.28125 C 8.007812 0.28125 6.609375 -0.0703125 5.421875 -0.78125 C 4.234375 -1.5 3.304688 -2.613281 2.640625 -4.125 C 1.984375 -5.632812 1.65625 -7.539062 1.65625 -9.84375 C 1.65625 -12.15625 1.984375 -14.066406 2.640625 -15.578125 C 3.304688 -17.085938 4.234375 -18.195312 5.421875 -18.90625 C 6.609375 -19.625 8.007812 -19.984375 9.625 -19.984375 C 11.238281 -19.984375 12.640625 -19.625 13.828125 -18.90625 C 15.015625 -18.195312 15.9375 -17.085938 16.59375 -15.578125 C 17.257812 -14.066406 17.59375 -12.15625 17.59375 -9.84375 C 17.59375 -7.539062 17.257812 -5.632812 16.59375 -4.125 C 15.9375 -2.613281 15.015625 -1.5 13.828125 -0.78125 C 12.640625 -0.0703125 11.238281 0.28125 9.625 0.28125 Z M 9.625 -3.015625 C 10.5 -3.015625 11.234375 -3.226562 11.828125 -3.65625 C 12.421875 -4.082031 12.875 -4.796875 13.1875 -5.796875 C 13.507812 -6.804688 13.671875 -8.15625 13.671875 -9.84375 C 13.671875 -11.53125 13.507812 -12.878906 13.1875 -13.890625 C 12.875 -14.898438 12.421875 -15.617188 11.828125 -16.046875 C 11.234375 -16.472656 10.5 -16.6875 9.625 -16.6875 C 8.738281 -16.6875 8 -16.472656 7.40625 -16.046875 C 6.8125 -15.617188 6.351562 -14.898438 6.03125 -13.890625 C 5.71875 -12.878906 5.5625 -11.53125 5.5625 -9.84375 C 5.5625 -8.15625 5.71875 -6.804688 6.03125 -5.796875 C 6.351562 -4.796875 6.8125 -4.082031 7.40625 -3.65625 C 8 -3.226562 8.738281 -3.015625 9.625 -3.015625 Z M 9.625 -3.015625 "/></g></g><g transform="translate(19.423728, 30.29903)"><g><path d="M 3.796875 0.125 C 3.316406 0.125 2.894531 0.03125 2.53125 -0.15625 C 2.175781 -0.351562 1.898438 -0.625 1.703125 -0.96875 C 1.515625 -1.3125 1.421875 -1.695312 1.421875 -2.125 C 1.421875 -2.5625 1.515625 -2.945312 1.703125 -3.28125 C 1.898438 -3.625 2.175781 -3.894531 2.53125 -4.09375 C 2.894531 -4.289062 3.316406 -4.390625 3.796875 -4.390625 C 4.285156 -4.390625 4.710938 -4.289062 5.078125 -4.09375 C 5.441406 -3.90625 5.71875 -3.640625 5.90625 -3.296875 C 6.101562 -2.953125 6.203125 -2.566406 6.203125 -2.140625 C 6.203125 -1.484375 5.984375 -0.941406 5.546875 -0.515625 C 5.109375 -0.0859375 4.523438 0.125 3.796875 0.125 Z M 3.796875 0.125 "/></g></g><g transform="translate(27.035873, 30.29903)"><g><path d="M 6.546875 0 L 2.578125 0 L 9.359375 -16.140625 L 9.28125 -16.421875 L 0.53125 -16.421875 L 0.53125 -19.703125 L 13.3125 -19.703125 L 13.3125 -16.25 Z M 6.546875 0 "/></g></g><g transform="translate(41.00719, 30.29903)"><g><path d="M 5.640625 -9 C 4.191406 -9 3.050781 -9.453125 2.21875 -10.359375 C 1.394531 -11.265625 0.984375 -12.644531 0.984375 -14.5 C 0.984375 -16.34375 1.394531 -17.71875 2.21875 -18.625 C 3.050781 -19.53125 4.191406 -19.984375 5.640625 -19.984375 C 7.078125 -19.984375 8.207031 -19.53125 9.03125 -18.625 C 9.863281 -17.71875 10.28125 -16.34375 10.28125 -14.5 C 10.28125 -12.644531 9.863281 -11.265625 9.03125 -10.359375 C 8.207031 -9.453125 7.078125 -9 5.640625 -9 Z M 7 0 L 3.71875 0 L 3.671875 -0.28125 L 16.84375 -19.703125 L 20.125 -19.703125 L 20.1875 -19.421875 Z M 5.640625 -11.5625 C 6.191406 -11.5625 6.601562 -11.773438 6.875 -12.203125 C 7.144531 -12.640625 7.28125 -13.40625 7.28125 -14.5 C 7.28125 -15.59375 7.144531 -16.351562 6.875 -16.78125 C 6.601562 -17.21875 6.191406 -17.4375 5.640625 -17.4375 C 5.265625 -17.4375 4.957031 -17.347656 4.71875 -17.171875 C 4.476562 -16.992188 4.289062 -16.6875 4.15625 -16.25 C 4.03125 -15.820312 3.96875 -15.238281 3.96875 -14.5 C 3.96875 -13.738281 4.03125 -13.144531 4.15625 -12.71875 C 4.289062 -12.289062 4.472656 -11.988281 4.703125 -11.8125 C 4.941406 -11.644531 5.253906 -11.5625 5.640625 -11.5625 Z M 18.265625 0.28125 C 16.816406 0.28125 15.675781 -0.164062 14.84375 -1.0625 C 14.019531 -1.96875 13.609375 -3.347656 13.609375 -5.203125 C 13.609375 -7.046875 14.019531 -8.421875 14.84375 -9.328125 C 15.675781 -10.242188 16.816406 -10.703125 18.265625 -10.703125 C 19.703125 -10.703125 20.832031 -10.242188 21.65625 -9.328125 C 22.488281 -8.421875 22.90625 -7.046875 22.90625 -5.203125 C 22.90625 -3.359375 22.488281 -1.984375 21.65625 -1.078125 C 20.832031 -0.171875 19.703125 0.28125 18.265625 0.28125 Z M 18.265625 -2.28125 C 18.640625 -2.28125 18.941406 -2.363281 19.171875 -2.53125 C 19.410156 -2.707031 19.59375 -3.007812 19.71875 -3.4375 C 19.84375 -3.863281 19.90625 -4.453125 19.90625 -5.203125 C 19.90625 -5.953125 19.84375 -6.539062 19.71875 -6.96875 C 19.59375 -7.394531 19.410156 -7.695312 19.171875 -7.875 C 18.941406 -8.050781 18.640625 -8.140625 18.265625 -8.140625 C 17.890625 -8.140625 17.582031 -8.050781 17.34375 -7.875 C 17.101562 -7.695312 16.921875 -7.394531 16.796875 -6.96875 C 16.671875 -6.539062 16.609375 -5.953125 16.609375 -5.203125 C 16.609375 -4.453125 16.671875 -3.863281 16.796875 -3.4375 C 16.921875 -3.007812 17.101562 -2.707031 17.34375 -2.53125 C 17.582031 -2.363281 17.890625 -2.28125 18.265625 -2.28125 Z M 18.265625 -2.28125 "/></g></g></g></g></g></g></svg>