<svg xmlns="http://www.w3.org/2000/svg" xmlns:xlink="http://www.w3.org/1999/xlink" width="300" zoomAndPan="magnify" viewBox="0 0 224.87999 112.499997" height="150" preserveAspectRatio="xMidYMid meet" version="1.0"><defs><g/><clipPath id="ebe1f60e0e"><path d="M 52 31.5 L 80 31.5 L 80 55 L 52 55 Z M 52 31.5 " clip-rule="nonzero"/></clipPath><clipPath id="388bad6bbe"><path d="M 60 54 L 99.773438 54 L 99.773438 80.78125 L 60 80.78125 Z M 60 54 " clip-rule="nonzero"/></clipPath><clipPath id="e00fab56ff"><path d="M 36.304688 38 L 60 38 L 60 48 L 36.304688 48 Z M 36.304688 38 " clip-rule="nonzero"/></clipPath></defs><g fill="#0e3eb3" fill-opacity="1"><g transform="translate(102.384001, 64.013974)"><g><path d="M 6.328125 0 L 2.515625 0 L 2.515625 -19.3125 L 6.328125 -19.3125 Z M 6.328125 0 "/></g></g></g><g fill="#0e3eb3" fill-opacity="1"><g transform="translate(111.23136, 64.013974)"><g><path d="M 6.8125 0.28125 C 5.820312 0.28125 4.910156 0.164062 4.078125 -0.0625 C 3.253906 -0.300781 2.546875 -0.625 1.953125 -1.03125 C 1.367188 -1.445312 0.9375 -1.914062 0.65625 -2.4375 L 2.6875 -4.640625 L 2.96875 -4.640625 C 3.457031 -3.984375 4.03125 -3.492188 4.6875 -3.171875 C 5.34375 -2.847656 6.0625 -2.6875 6.84375 -2.6875 C 7.550781 -2.6875 8.085938 -2.8125 8.453125 -3.0625 C 8.816406 -3.320312 9 -3.6875 9 -4.15625 C 9 -4.53125 8.867188 -4.84375 8.609375 -5.09375 C 8.347656 -5.34375 7.925781 -5.535156 7.34375 -5.671875 L 5.421875 -6.140625 C 3.972656 -6.484375 2.914062 -7.007812 2.25 -7.71875 C 1.582031 -8.425781 1.25 -9.328125 1.25 -10.421875 C 1.25 -11.328125 1.476562 -12.113281 1.9375 -12.78125 C 2.40625 -13.445312 3.054688 -13.957031 3.890625 -14.3125 C 4.734375 -14.664062 5.71875 -14.84375 6.84375 -14.84375 C 8.15625 -14.84375 9.238281 -14.648438 10.09375 -14.265625 C 10.957031 -13.890625 11.632812 -13.382812 12.125 -12.75 L 10.171875 -10.640625 L 9.90625 -10.640625 C 9.5 -11.097656 9.039062 -11.429688 8.53125 -11.640625 C 8.03125 -11.859375 7.46875 -11.96875 6.84375 -11.96875 C 5.394531 -11.96875 4.671875 -11.519531 4.671875 -10.625 C 4.671875 -10.238281 4.804688 -9.925781 5.078125 -9.6875 C 5.347656 -9.457031 5.820312 -9.265625 6.5 -9.109375 L 8.296875 -8.71875 C 9.773438 -8.394531 10.851562 -7.882812 11.53125 -7.1875 C 12.21875 -6.488281 12.5625 -5.550781 12.5625 -4.375 C 12.5625 -3.445312 12.332031 -2.628906 11.875 -1.921875 C 11.414062 -1.222656 10.753906 -0.679688 9.890625 -0.296875 C 9.023438 0.0859375 8 0.28125 6.8125 0.28125 Z M 6.8125 0.28125 "/></g></g></g><g fill="#0e3eb3" fill-opacity="1"><g transform="translate(124.660857, 64.013974)"><g><path d="M 3.21875 6.1875 C 2.59375 6.1875 2.023438 6.132812 1.515625 6.03125 C 1.015625 5.9375 0.609375 5.8125 0.296875 5.65625 L 0.875 2.6875 L 1.109375 2.609375 C 1.328125 2.722656 1.597656 2.816406 1.921875 2.890625 C 2.253906 2.960938 2.59375 3 2.9375 3 C 3.519531 3 4.003906 2.921875 4.390625 2.765625 C 4.785156 2.609375 5.117188 2.351562 5.390625 2 C 5.671875 1.644531 5.914062 1.148438 6.125 0.515625 L 0.3125 -14.5625 L 4.140625 -14.5625 L 7.765625 -4.4375 L 8.078125 -4.4375 L 11.609375 -14.5625 L 15.328125 -14.5625 L 9.484375 0.90625 C 9.015625 2.15625 8.5 3.160156 7.9375 3.921875 C 7.382812 4.691406 6.726562 5.257812 5.96875 5.625 C 5.207031 6 4.289062 6.1875 3.21875 6.1875 Z M 3.21875 6.1875 "/></g></g></g><g fill="#14de94" fill-opacity="1"><g transform="translate(140.301414, 64.013974)"><g><path d="M 9.96875 -19.3125 C 11.351562 -19.3125 12.535156 -19.054688 13.515625 -18.546875 C 14.492188 -18.046875 15.234375 -17.335938 15.734375 -16.421875 C 16.242188 -15.515625 16.5 -14.457031 16.5 -13.25 C 16.5 -12.039062 16.242188 -10.984375 15.734375 -10.078125 C 15.234375 -9.171875 14.492188 -8.460938 13.515625 -7.953125 C 12.535156 -7.453125 11.351562 -7.203125 9.96875 -7.203125 L 6.328125 -7.203125 L 6.328125 0 L 2.515625 0 L 2.515625 -19.3125 Z M 9.46875 -10.21875 C 11.59375 -10.21875 12.65625 -11.226562 12.65625 -13.25 C 12.65625 -15.269531 11.59375 -16.28125 9.46875 -16.28125 L 6.328125 -16.28125 L 6.328125 -10.21875 Z M 9.46875 -10.21875 "/></g></g></g><g fill="#14de94" fill-opacity="1"><g transform="translate(157.943311, 64.013974)"><g><path d="M 5.671875 0.28125 C 4.742188 0.28125 3.9375 0.109375 3.25 -0.234375 C 2.5625 -0.578125 2.03125 -1.082031 1.65625 -1.75 C 1.289062 -2.414062 1.109375 -3.210938 1.109375 -4.140625 C 1.109375 -5.003906 1.289062 -5.726562 1.65625 -6.3125 C 2.03125 -6.90625 2.601562 -7.382812 3.375 -7.75 C 4.15625 -8.125 5.171875 -8.414062 6.421875 -8.625 C 7.285156 -8.757812 7.945312 -8.910156 8.40625 -9.078125 C 8.863281 -9.253906 9.171875 -9.445312 9.328125 -9.65625 C 9.484375 -9.863281 9.5625 -10.128906 9.5625 -10.453125 C 9.5625 -10.921875 9.394531 -11.28125 9.0625 -11.53125 C 8.738281 -11.78125 8.203125 -11.90625 7.453125 -11.90625 C 6.640625 -11.90625 5.867188 -11.722656 5.140625 -11.359375 C 4.410156 -10.992188 3.773438 -10.519531 3.234375 -9.9375 L 2.96875 -9.9375 L 1.4375 -12.25 C 2.175781 -13.0625 3.078125 -13.695312 4.140625 -14.15625 C 5.210938 -14.613281 6.378906 -14.84375 7.640625 -14.84375 C 9.566406 -14.84375 10.957031 -14.429688 11.8125 -13.609375 C 12.675781 -12.796875 13.109375 -11.632812 13.109375 -10.125 L 13.109375 -3.796875 C 13.109375 -3.148438 13.394531 -2.828125 13.96875 -2.828125 C 14.1875 -2.828125 14.40625 -2.863281 14.625 -2.9375 L 14.796875 -2.890625 L 15.0625 -0.34375 C 14.863281 -0.207031 14.582031 -0.0976562 14.21875 -0.015625 C 13.863281 0.0664062 13.46875 0.109375 13.03125 0.109375 C 12.164062 0.109375 11.488281 -0.0546875 11 -0.390625 C 10.507812 -0.722656 10.15625 -1.25 9.9375 -1.96875 L 9.671875 -2 C 8.953125 -0.476562 7.617188 0.28125 5.671875 0.28125 Z M 6.84375 -2.453125 C 7.6875 -2.453125 8.359375 -2.734375 8.859375 -3.296875 C 9.367188 -3.867188 9.625 -4.660156 9.625 -5.671875 L 9.625 -7.15625 L 9.375 -7.203125 C 9.15625 -7.035156 8.867188 -6.890625 8.515625 -6.765625 C 8.160156 -6.648438 7.644531 -6.535156 6.96875 -6.421875 C 6.175781 -6.285156 5.601562 -6.054688 5.25 -5.734375 C 4.90625 -5.410156 4.734375 -4.957031 4.734375 -4.375 C 4.734375 -3.75 4.914062 -3.269531 5.28125 -2.9375 C 5.65625 -2.613281 6.175781 -2.453125 6.84375 -2.453125 Z M 6.84375 -2.453125 "/></g></g></g><g fill="#14de94" fill-opacity="1"><g transform="translate(173.30074, 64.013974)"><g><path d="M 3.21875 6.1875 C 2.59375 6.1875 2.023438 6.132812 1.515625 6.03125 C 1.015625 5.9375 0.609375 5.8125 0.296875 5.65625 L 0.875 2.6875 L 1.109375 2.609375 C 1.328125 2.722656 1.597656 2.816406 1.921875 2.890625 C 2.253906 2.960938 2.59375 3 2.9375 3 C 3.519531 3 4.003906 2.921875 4.390625 2.765625 C 4.785156 2.609375 5.117188 2.351562 5.390625 2 C 5.671875 1.644531 5.914062 1.148438 6.125 0.515625 L 0.3125 -14.5625 L 4.140625 -14.5625 L 7.765625 -4.4375 L 8.078125 -4.4375 L 11.609375 -14.5625 L 15.328125 -14.5625 L 9.484375 0.90625 C 9.015625 2.15625 8.5 3.160156 7.9375 3.921875 C 7.382812 4.691406 6.726562 5.257812 5.96875 5.625 C 5.207031 6 4.289062 6.1875 3.21875 6.1875 Z M 3.21875 6.1875 "/></g></g></g><path fill="#0e3eb3" d="M 51.160156 66.703125 C 49.832031 64.941406 46.433594 59.296875 54.035156 55.472656 C 54.640625 55.167969 55.234375 54.847656 55.808594 54.488281 L 82.035156 38.089844 C 82.035156 38.089844 87.335938 33.539062 91.289062 40.222656 C 94.660156 45.921875 96.902344 49.503906 97.492188 50.433594 C 97.53125 50.5 97.546875 50.574219 97.527344 50.652344 C 97.511719 50.730469 97.46875 50.789062 97.402344 50.832031 L 57.328125 76.113281 C 57.230469 76.175781 57.152344 76.160156 57.089844 76.0625 L 52.25 68.292969 C 51.914062 67.746094 51.550781 67.214844 51.160156 66.703125 Z M 51.160156 66.703125 " fill-opacity="1" fill-rule="nonzero"/><g clip-path="url(#ebe1f60e0e)"><path fill="#14de94" d="M 52.425781 54.621094 L 79.304688 37.554688 C 79.339844 37.53125 79.339844 37.507812 79.304688 37.484375 L 71.238281 32.1875 C 71.238281 32.1875 67.847656 30.125 65.695312 33.324219 C 63.730469 36.242188 53.976562 51.769531 52.28125 54.472656 C 52.25 54.519531 52.257812 54.5625 52.296875 54.601562 C 52.335938 54.640625 52.378906 54.648438 52.425781 54.621094 Z M 52.425781 54.621094 " fill-opacity="1" fill-rule="nonzero"/></g><g clip-path="url(#388bad6bbe)"><path fill="#0e3eb3" d="M 60.378906 79.929688 L 99.429688 55 C 99.480469 54.960938 99.535156 54.957031 99.59375 54.980469 C 99.652344 55.003906 99.6875 55.046875 99.699219 55.109375 C 99.871094 55.851562 100.070312 58.261719 96.378906 60.917969 C 91.929688 64.117188 81.40625 70.238281 81.40625 70.238281 L 65.695312 80.121094 C 65.695312 80.121094 63.679688 81.449219 60.417969 80.25 C 60.339844 80.230469 60.296875 80.183594 60.289062 80.101562 C 60.28125 80.023438 60.308594 79.964844 60.378906 79.929688 Z M 60.378906 79.929688 " fill-opacity="1" fill-rule="nonzero"/></g><g clip-path="url(#e00fab56ff)"><path fill="#14de94" d="M 54.238281 47.332031 L 59.464844 39.066406 C 59.523438 38.980469 59.527344 38.886719 59.476562 38.796875 C 59.425781 38.703125 59.347656 38.65625 59.242188 38.65625 L 40.28125 38.65625 C 39.253906 38.644531 38.335938 38.957031 37.527344 39.597656 C 36.933594 40.078125 36.410156 40.769531 36.351562 41.714844 C 36.25 43.339844 36.222656 44.929688 37.371094 46.171875 C 37.777344 46.597656 38.253906 46.921875 38.792969 47.148438 C 39.332031 47.375 39.898438 47.484375 40.480469 47.476562 L 53.976562 47.476562 C 54.089844 47.476562 54.175781 47.429688 54.238281 47.332031 Z M 54.238281 47.332031 " fill-opacity="1" fill-rule="nonzero"/></g><path fill="#0e3eb3" d="M 52.78125 50.003906 L 48.464844 58.234375 C 48.394531 58.363281 48.289062 58.429688 48.144531 58.429688 L 43.203125 58.429688 C 42.398438 58.4375 41.644531 58.238281 40.949219 57.832031 C 40.25 57.421875 39.707031 56.863281 39.316406 56.152344 C 38.863281 55.300781 38.722656 54.402344 38.894531 53.449219 C 39.136719 52.019531 39.820312 51.144531 40.519531 50.617188 C 41.261719 50.078125 42.09375 49.8125 43.011719 49.824219 L 52.675781 49.824219 C 52.722656 49.824219 52.757812 49.84375 52.78125 49.882812 C 52.804688 49.921875 52.804688 49.960938 52.78125 50.003906 Z M 52.78125 50.003906 " fill-opacity="1" fill-rule="nonzero"/><path fill="#14de94" d="M 45.125 69.808594 L 50.75 69.808594 C 50.800781 69.808594 50.835938 69.785156 50.855469 69.738281 C 50.875 69.691406 50.863281 69.652344 50.828125 69.617188 C 50.074219 68.890625 47.527344 66.105469 47.101562 61.222656 C 47.09375 61.066406 47.007812 60.988281 46.855469 60.988281 L 45.269531 60.988281 C 44.488281 60.984375 43.761719 61.175781 43.082031 61.558594 C 42.40625 61.945312 41.867188 62.472656 41.46875 63.144531 C 41.46875 63.160156 41.449219 63.171875 41.441406 63.1875 C 41.042969 63.890625 40.878906 64.648438 40.953125 65.457031 C 41.019531 66.34375 41.273438 67.171875 41.714844 67.9375 C 42.082031 68.527344 42.570312 68.988281 43.179688 69.320312 C 43.785156 69.652344 44.433594 69.816406 45.125 69.808594 Z M 45.125 69.808594 " fill-opacity="1" fill-rule="nonzero"/></svg>